%TF.GenerationSoftware,KiCad,Pcbnew,8.0.2*%
%TF.CreationDate,2024-05-29T12:03:12+02:00*%
%TF.ProjectId,IOT_ESP32,494f545f-4553-4503-9332-2e6b69636164,rev?*%
%TF.SameCoordinates,Original*%
%TF.FileFunction,Copper,L2,Bot*%
%TF.FilePolarity,Positive*%
%FSLAX46Y46*%
G04 Gerber Fmt 4.6, Leading zero omitted, Abs format (unit mm)*
G04 Created by KiCad (PCBNEW 8.0.2) date 2024-05-29 12:03:12*
%MOMM*%
%LPD*%
G01*
G04 APERTURE LIST*
G04 Aperture macros list*
%AMRoundRect*
0 Rectangle with rounded corners*
0 $1 Rounding radius*
0 $2 $3 $4 $5 $6 $7 $8 $9 X,Y pos of 4 corners*
0 Add a 4 corners polygon primitive as box body*
4,1,4,$2,$3,$4,$5,$6,$7,$8,$9,$2,$3,0*
0 Add four circle primitives for the rounded corners*
1,1,$1+$1,$2,$3*
1,1,$1+$1,$4,$5*
1,1,$1+$1,$6,$7*
1,1,$1+$1,$8,$9*
0 Add four rect primitives between the rounded corners*
20,1,$1+$1,$2,$3,$4,$5,0*
20,1,$1+$1,$4,$5,$6,$7,0*
20,1,$1+$1,$6,$7,$8,$9,0*
20,1,$1+$1,$8,$9,$2,$3,0*%
G04 Aperture macros list end*
%TA.AperFunction,HeatsinkPad*%
%ADD10C,0.600000*%
%TD*%
%TA.AperFunction,ComponentPad*%
%ADD11O,1.000000X2.100000*%
%TD*%
%TA.AperFunction,ComponentPad*%
%ADD12O,1.000000X1.600000*%
%TD*%
%TA.AperFunction,ComponentPad*%
%ADD13R,2.200000X2.200000*%
%TD*%
%TA.AperFunction,ComponentPad*%
%ADD14O,2.200000X2.200000*%
%TD*%
%TA.AperFunction,ComponentPad*%
%ADD15RoundRect,0.250000X0.725000X-0.600000X0.725000X0.600000X-0.725000X0.600000X-0.725000X-0.600000X0*%
%TD*%
%TA.AperFunction,ComponentPad*%
%ADD16O,1.950000X1.700000*%
%TD*%
%TA.AperFunction,ComponentPad*%
%ADD17R,1.700000X1.700000*%
%TD*%
%TA.AperFunction,ComponentPad*%
%ADD18O,1.700000X1.700000*%
%TD*%
%TA.AperFunction,SMDPad,CuDef*%
%ADD19RoundRect,0.250000X0.475000X-0.337500X0.475000X0.337500X-0.475000X0.337500X-0.475000X-0.337500X0*%
%TD*%
%TA.AperFunction,ComponentPad*%
%ADD20R,2.600000X2.600000*%
%TD*%
%TA.AperFunction,ComponentPad*%
%ADD21C,2.600000*%
%TD*%
%TA.AperFunction,ComponentPad*%
%ADD22R,1.980000X1.980000*%
%TD*%
%TA.AperFunction,ComponentPad*%
%ADD23C,1.980000*%
%TD*%
%TA.AperFunction,ComponentPad*%
%ADD24C,1.935000*%
%TD*%
%TA.AperFunction,SMDPad,CuDef*%
%ADD25RoundRect,0.250000X-0.450000X0.350000X-0.450000X-0.350000X0.450000X-0.350000X0.450000X0.350000X0*%
%TD*%
G04 APERTURE END LIST*
D10*
%TO.P,U3,39,GND*%
%TO.N,GND*%
X130600000Y-111477500D03*
X130600000Y-109952500D03*
X129837500Y-112240000D03*
X129837500Y-110715000D03*
X129837500Y-109190000D03*
X129075000Y-111477500D03*
X129075000Y-109952500D03*
X128312500Y-112240000D03*
X128312500Y-110715000D03*
X128312500Y-109190000D03*
X127550000Y-111477500D03*
X127550000Y-109952500D03*
%TD*%
D11*
%TO.P,USB1,13,SHIELD*%
%TO.N,GND*%
X105000000Y-112495000D03*
D12*
X105000000Y-116675000D03*
D11*
X113640000Y-112495000D03*
D12*
X113640000Y-116675000D03*
%TD*%
D13*
%TO.P,D3,1,K*%
%TO.N,+5V*%
X131260000Y-82150000D03*
D14*
%TO.P,D3,2,A*%
%TO.N,Net-(D3-A)*%
X131260000Y-69450000D03*
%TD*%
D15*
%TO.P,J3,1,Pin_1*%
%TO.N,GND*%
X118775000Y-92490000D03*
D16*
%TO.P,J3,2,Pin_2*%
%TO.N,+3.3V*%
X118775000Y-89990000D03*
%TO.P,J3,3,Pin_3*%
%TO.N,/SDA*%
X118775000Y-87490000D03*
%TO.P,J3,4,Pin_4*%
%TO.N,/SCL*%
X118775000Y-84990000D03*
%TD*%
D17*
%TO.P,J1,1,Pin_1*%
%TO.N,+3.3V*%
X131270000Y-94785000D03*
D18*
%TO.P,J1,2,Pin_2*%
%TO.N,/GPIO25*%
X131270000Y-92245000D03*
%TO.P,J1,3,Pin_3*%
%TO.N,/GPIO27*%
X133810000Y-94785000D03*
%TO.P,J1,4,Pin_4*%
%TO.N,GND*%
X133810000Y-92245000D03*
%TO.P,J1,5,Pin_5*%
%TO.N,+3.3V*%
X136350000Y-94785000D03*
%TO.P,J1,6,Pin_6*%
%TO.N,/GPIO34*%
X136350000Y-92245000D03*
%TO.P,J1,7,Pin_7*%
%TO.N,/GPIO35*%
X138890000Y-94785000D03*
%TO.P,J1,8,Pin_8*%
%TO.N,GND*%
X138890000Y-92245000D03*
%TD*%
D19*
%TO.P,C8,1*%
%TO.N,+3.3V*%
X-46050000Y-50025000D03*
%TO.P,C8,2*%
%TO.N,GND*%
X-46050000Y-47950000D03*
%TD*%
D20*
%TO.P,J2,1,Pin_1*%
%TO.N,GND*%
X106140000Y-65510000D03*
D21*
%TO.P,J2,2,Pin_2*%
%TO.N,+5V*%
X101140000Y-65510000D03*
%TD*%
D22*
%TO.P,K1,A1*%
%TO.N,+5V*%
X137587500Y-73780000D03*
D23*
%TO.P,K1,A2*%
%TO.N,Net-(D3-A)*%
X137587500Y-61780000D03*
D24*
%TO.P,K1,COM*%
%TO.N,Net-(J4-Pin_2)*%
X135587500Y-67780000D03*
D23*
%TO.P,K1,NC*%
%TO.N,Net-(J4-Pin_3)*%
X149787500Y-73780000D03*
%TO.P,K1,NO*%
%TO.N,Net-(J4-Pin_1)*%
X149787500Y-61780000D03*
%TD*%
D20*
%TO.P,J4,1,Pin_1*%
%TO.N,Net-(J4-Pin_1)*%
X159420000Y-62790000D03*
D21*
%TO.P,J4,2,Pin_2*%
%TO.N,Net-(J4-Pin_2)*%
X159420000Y-67790000D03*
%TO.P,J4,3,Pin_3*%
%TO.N,Net-(J4-Pin_3)*%
X159420000Y-72790000D03*
%TD*%
D25*
%TO.P,R11,1*%
%TO.N,+3.3V*%
X126040000Y-74730000D03*
%TO.P,R11,2*%
%TO.N,Net-(D4-A)*%
X126040000Y-76730000D03*
%TD*%
M02*
