%TF.GenerationSoftware,KiCad,Pcbnew,8.0.2*%
%TF.CreationDate,2024-05-29T12:03:12+02:00*%
%TF.ProjectId,IOT_ESP32,494f545f-4553-4503-9332-2e6b69636164,rev?*%
%TF.SameCoordinates,Original*%
%TF.FileFunction,Other,Comment*%
%FSLAX46Y46*%
G04 Gerber Fmt 4.6, Leading zero omitted, Abs format (unit mm)*
G04 Created by KiCad (PCBNEW 8.0.2) date 2024-05-29 12:03:12*
%MOMM*%
%LPD*%
G01*
G04 APERTURE LIST*
%ADD10C,0.150000*%
%ADD11C,0.030000*%
G04 APERTURE END LIST*
D10*
X125633095Y-122974104D02*
X126109285Y-122974104D01*
X125537857Y-123259819D02*
X125871190Y-122259819D01*
X125871190Y-122259819D02*
X126204523Y-123259819D01*
X126537857Y-122593152D02*
X126537857Y-123259819D01*
X126537857Y-122688390D02*
X126585476Y-122640771D01*
X126585476Y-122640771D02*
X126680714Y-122593152D01*
X126680714Y-122593152D02*
X126823571Y-122593152D01*
X126823571Y-122593152D02*
X126918809Y-122640771D01*
X126918809Y-122640771D02*
X126966428Y-122736009D01*
X126966428Y-122736009D02*
X126966428Y-123259819D01*
X127299762Y-122593152D02*
X127680714Y-122593152D01*
X127442619Y-122259819D02*
X127442619Y-123116961D01*
X127442619Y-123116961D02*
X127490238Y-123212200D01*
X127490238Y-123212200D02*
X127585476Y-123259819D01*
X127585476Y-123259819D02*
X127680714Y-123259819D01*
X128395000Y-123212200D02*
X128299762Y-123259819D01*
X128299762Y-123259819D02*
X128109286Y-123259819D01*
X128109286Y-123259819D02*
X128014048Y-123212200D01*
X128014048Y-123212200D02*
X127966429Y-123116961D01*
X127966429Y-123116961D02*
X127966429Y-122736009D01*
X127966429Y-122736009D02*
X128014048Y-122640771D01*
X128014048Y-122640771D02*
X128109286Y-122593152D01*
X128109286Y-122593152D02*
X128299762Y-122593152D01*
X128299762Y-122593152D02*
X128395000Y-122640771D01*
X128395000Y-122640771D02*
X128442619Y-122736009D01*
X128442619Y-122736009D02*
X128442619Y-122831247D01*
X128442619Y-122831247D02*
X127966429Y-122926485D01*
X128871191Y-122593152D02*
X128871191Y-123259819D01*
X128871191Y-122688390D02*
X128918810Y-122640771D01*
X128918810Y-122640771D02*
X129014048Y-122593152D01*
X129014048Y-122593152D02*
X129156905Y-122593152D01*
X129156905Y-122593152D02*
X129252143Y-122640771D01*
X129252143Y-122640771D02*
X129299762Y-122736009D01*
X129299762Y-122736009D02*
X129299762Y-123259819D01*
X129775953Y-122593152D02*
X129775953Y-123259819D01*
X129775953Y-122688390D02*
X129823572Y-122640771D01*
X129823572Y-122640771D02*
X129918810Y-122593152D01*
X129918810Y-122593152D02*
X130061667Y-122593152D01*
X130061667Y-122593152D02*
X130156905Y-122640771D01*
X130156905Y-122640771D02*
X130204524Y-122736009D01*
X130204524Y-122736009D02*
X130204524Y-123259819D01*
X131109286Y-123259819D02*
X131109286Y-122736009D01*
X131109286Y-122736009D02*
X131061667Y-122640771D01*
X131061667Y-122640771D02*
X130966429Y-122593152D01*
X130966429Y-122593152D02*
X130775953Y-122593152D01*
X130775953Y-122593152D02*
X130680715Y-122640771D01*
X131109286Y-123212200D02*
X131014048Y-123259819D01*
X131014048Y-123259819D02*
X130775953Y-123259819D01*
X130775953Y-123259819D02*
X130680715Y-123212200D01*
X130680715Y-123212200D02*
X130633096Y-123116961D01*
X130633096Y-123116961D02*
X130633096Y-123021723D01*
X130633096Y-123021723D02*
X130680715Y-122926485D01*
X130680715Y-122926485D02*
X130775953Y-122878866D01*
X130775953Y-122878866D02*
X131014048Y-122878866D01*
X131014048Y-122878866D02*
X131109286Y-122831247D01*
X116202142Y-133202438D02*
X116202142Y-131202438D01*
X117344999Y-133202438D02*
X116487856Y-132059580D01*
X117344999Y-131202438D02*
X116202142Y-132345295D01*
X118202142Y-132154819D02*
X118868809Y-132154819D01*
X119154523Y-133202438D02*
X118202142Y-133202438D01*
X118202142Y-133202438D02*
X118202142Y-131202438D01*
X118202142Y-131202438D02*
X119154523Y-131202438D01*
X120011666Y-132154819D02*
X120678333Y-132154819D01*
X120964047Y-133202438D02*
X120011666Y-133202438D01*
X120011666Y-133202438D02*
X120011666Y-131202438D01*
X120011666Y-131202438D02*
X120964047Y-131202438D01*
X121821190Y-133202438D02*
X121821190Y-131202438D01*
X121821190Y-131202438D02*
X122583095Y-131202438D01*
X122583095Y-131202438D02*
X122773571Y-131297676D01*
X122773571Y-131297676D02*
X122868809Y-131392914D01*
X122868809Y-131392914D02*
X122964047Y-131583390D01*
X122964047Y-131583390D02*
X122964047Y-131869104D01*
X122964047Y-131869104D02*
X122868809Y-132059580D01*
X122868809Y-132059580D02*
X122773571Y-132154819D01*
X122773571Y-132154819D02*
X122583095Y-132250057D01*
X122583095Y-132250057D02*
X121821190Y-132250057D01*
X123821190Y-132440533D02*
X125345000Y-132440533D01*
X126678332Y-131202438D02*
X127059285Y-131202438D01*
X127059285Y-131202438D02*
X127249761Y-131297676D01*
X127249761Y-131297676D02*
X127440237Y-131488152D01*
X127440237Y-131488152D02*
X127535475Y-131869104D01*
X127535475Y-131869104D02*
X127535475Y-132535771D01*
X127535475Y-132535771D02*
X127440237Y-132916723D01*
X127440237Y-132916723D02*
X127249761Y-133107200D01*
X127249761Y-133107200D02*
X127059285Y-133202438D01*
X127059285Y-133202438D02*
X126678332Y-133202438D01*
X126678332Y-133202438D02*
X126487856Y-133107200D01*
X126487856Y-133107200D02*
X126297380Y-132916723D01*
X126297380Y-132916723D02*
X126202142Y-132535771D01*
X126202142Y-132535771D02*
X126202142Y-131869104D01*
X126202142Y-131869104D02*
X126297380Y-131488152D01*
X126297380Y-131488152D02*
X126487856Y-131297676D01*
X126487856Y-131297676D02*
X126678332Y-131202438D01*
X128392618Y-131202438D02*
X128392618Y-132821485D01*
X128392618Y-132821485D02*
X128487856Y-133011961D01*
X128487856Y-133011961D02*
X128583094Y-133107200D01*
X128583094Y-133107200D02*
X128773570Y-133202438D01*
X128773570Y-133202438D02*
X129154523Y-133202438D01*
X129154523Y-133202438D02*
X129344999Y-133107200D01*
X129344999Y-133107200D02*
X129440237Y-133011961D01*
X129440237Y-133011961D02*
X129535475Y-132821485D01*
X129535475Y-132821485D02*
X129535475Y-131202438D01*
X130202142Y-131202438D02*
X131344999Y-131202438D01*
X130773570Y-133202438D02*
X130773570Y-131202438D01*
X133345000Y-131202438D02*
X134678333Y-131202438D01*
X134678333Y-131202438D02*
X133345000Y-133202438D01*
X133345000Y-133202438D02*
X134678333Y-133202438D01*
X135821190Y-131202438D02*
X136202143Y-131202438D01*
X136202143Y-131202438D02*
X136392619Y-131297676D01*
X136392619Y-131297676D02*
X136583095Y-131488152D01*
X136583095Y-131488152D02*
X136678333Y-131869104D01*
X136678333Y-131869104D02*
X136678333Y-132535771D01*
X136678333Y-132535771D02*
X136583095Y-132916723D01*
X136583095Y-132916723D02*
X136392619Y-133107200D01*
X136392619Y-133107200D02*
X136202143Y-133202438D01*
X136202143Y-133202438D02*
X135821190Y-133202438D01*
X135821190Y-133202438D02*
X135630714Y-133107200D01*
X135630714Y-133107200D02*
X135440238Y-132916723D01*
X135440238Y-132916723D02*
X135345000Y-132535771D01*
X135345000Y-132535771D02*
X135345000Y-131869104D01*
X135345000Y-131869104D02*
X135440238Y-131488152D01*
X135440238Y-131488152D02*
X135630714Y-131297676D01*
X135630714Y-131297676D02*
X135821190Y-131202438D01*
X137535476Y-133202438D02*
X137535476Y-131202438D01*
X137535476Y-131202438D02*
X138678333Y-133202438D01*
X138678333Y-133202438D02*
X138678333Y-131202438D01*
X139630714Y-132154819D02*
X140297381Y-132154819D01*
X140583095Y-133202438D02*
X139630714Y-133202438D01*
X139630714Y-133202438D02*
X139630714Y-131202438D01*
X139630714Y-131202438D02*
X140583095Y-131202438D01*
D11*
X161405715Y-108020963D02*
X161405715Y-107820963D01*
X161520000Y-108020963D02*
X161434286Y-107906678D01*
X161520000Y-107820963D02*
X161405715Y-107935249D01*
X161605715Y-107916201D02*
X161672381Y-107916201D01*
X161700953Y-108020963D02*
X161605715Y-108020963D01*
X161605715Y-108020963D02*
X161605715Y-107820963D01*
X161605715Y-107820963D02*
X161700953Y-107820963D01*
X161786667Y-107916201D02*
X161853333Y-107916201D01*
X161881905Y-108020963D02*
X161786667Y-108020963D01*
X161786667Y-108020963D02*
X161786667Y-107820963D01*
X161786667Y-107820963D02*
X161881905Y-107820963D01*
X161967619Y-108020963D02*
X161967619Y-107820963D01*
X161967619Y-107820963D02*
X162043809Y-107820963D01*
X162043809Y-107820963D02*
X162062857Y-107830487D01*
X162062857Y-107830487D02*
X162072380Y-107840011D01*
X162072380Y-107840011D02*
X162081904Y-107859059D01*
X162081904Y-107859059D02*
X162081904Y-107887630D01*
X162081904Y-107887630D02*
X162072380Y-107906678D01*
X162072380Y-107906678D02*
X162062857Y-107916201D01*
X162062857Y-107916201D02*
X162043809Y-107925725D01*
X162043809Y-107925725D02*
X161967619Y-107925725D01*
X162167619Y-107944773D02*
X162320000Y-107944773D01*
X162453333Y-107820963D02*
X162491428Y-107820963D01*
X162491428Y-107820963D02*
X162510476Y-107830487D01*
X162510476Y-107830487D02*
X162529523Y-107849535D01*
X162529523Y-107849535D02*
X162539047Y-107887630D01*
X162539047Y-107887630D02*
X162539047Y-107954297D01*
X162539047Y-107954297D02*
X162529523Y-107992392D01*
X162529523Y-107992392D02*
X162510476Y-108011440D01*
X162510476Y-108011440D02*
X162491428Y-108020963D01*
X162491428Y-108020963D02*
X162453333Y-108020963D01*
X162453333Y-108020963D02*
X162434285Y-108011440D01*
X162434285Y-108011440D02*
X162415238Y-107992392D01*
X162415238Y-107992392D02*
X162405714Y-107954297D01*
X162405714Y-107954297D02*
X162405714Y-107887630D01*
X162405714Y-107887630D02*
X162415238Y-107849535D01*
X162415238Y-107849535D02*
X162434285Y-107830487D01*
X162434285Y-107830487D02*
X162453333Y-107820963D01*
X162624762Y-107820963D02*
X162624762Y-107982868D01*
X162624762Y-107982868D02*
X162634285Y-108001916D01*
X162634285Y-108001916D02*
X162643809Y-108011440D01*
X162643809Y-108011440D02*
X162662857Y-108020963D01*
X162662857Y-108020963D02*
X162700952Y-108020963D01*
X162700952Y-108020963D02*
X162720000Y-108011440D01*
X162720000Y-108011440D02*
X162729523Y-108001916D01*
X162729523Y-108001916D02*
X162739047Y-107982868D01*
X162739047Y-107982868D02*
X162739047Y-107820963D01*
X162805714Y-107820963D02*
X162920000Y-107820963D01*
X162862857Y-108020963D02*
X162862857Y-107820963D01*
X163120000Y-107820963D02*
X163253333Y-107820963D01*
X163253333Y-107820963D02*
X163120000Y-108020963D01*
X163120000Y-108020963D02*
X163253333Y-108020963D01*
X163367619Y-107820963D02*
X163405714Y-107820963D01*
X163405714Y-107820963D02*
X163424762Y-107830487D01*
X163424762Y-107830487D02*
X163443809Y-107849535D01*
X163443809Y-107849535D02*
X163453333Y-107887630D01*
X163453333Y-107887630D02*
X163453333Y-107954297D01*
X163453333Y-107954297D02*
X163443809Y-107992392D01*
X163443809Y-107992392D02*
X163424762Y-108011440D01*
X163424762Y-108011440D02*
X163405714Y-108020963D01*
X163405714Y-108020963D02*
X163367619Y-108020963D01*
X163367619Y-108020963D02*
X163348571Y-108011440D01*
X163348571Y-108011440D02*
X163329524Y-107992392D01*
X163329524Y-107992392D02*
X163320000Y-107954297D01*
X163320000Y-107954297D02*
X163320000Y-107887630D01*
X163320000Y-107887630D02*
X163329524Y-107849535D01*
X163329524Y-107849535D02*
X163348571Y-107830487D01*
X163348571Y-107830487D02*
X163367619Y-107820963D01*
X163539048Y-108020963D02*
X163539048Y-107820963D01*
X163539048Y-107820963D02*
X163653333Y-108020963D01*
X163653333Y-108020963D02*
X163653333Y-107820963D01*
X163748572Y-107916201D02*
X163815238Y-107916201D01*
X163843810Y-108020963D02*
X163748572Y-108020963D01*
X163748572Y-108020963D02*
X163748572Y-107820963D01*
X163748572Y-107820963D02*
X163843810Y-107820963D01*
X161539047Y-107620963D02*
X161539047Y-107420963D01*
X161539047Y-107420963D02*
X161653332Y-107620963D01*
X161653332Y-107620963D02*
X161653332Y-107420963D01*
X161777142Y-107620963D02*
X161758094Y-107611440D01*
X161758094Y-107611440D02*
X161748571Y-107601916D01*
X161748571Y-107601916D02*
X161739047Y-107582868D01*
X161739047Y-107582868D02*
X161739047Y-107525725D01*
X161739047Y-107525725D02*
X161748571Y-107506678D01*
X161748571Y-107506678D02*
X161758094Y-107497154D01*
X161758094Y-107497154D02*
X161777142Y-107487630D01*
X161777142Y-107487630D02*
X161805713Y-107487630D01*
X161805713Y-107487630D02*
X161824761Y-107497154D01*
X161824761Y-107497154D02*
X161834285Y-107506678D01*
X161834285Y-107506678D02*
X161843809Y-107525725D01*
X161843809Y-107525725D02*
X161843809Y-107582868D01*
X161843809Y-107582868D02*
X161834285Y-107601916D01*
X161834285Y-107601916D02*
X161824761Y-107611440D01*
X161824761Y-107611440D02*
X161805713Y-107620963D01*
X161805713Y-107620963D02*
X161777142Y-107620963D01*
X162148570Y-107516201D02*
X162081904Y-107516201D01*
X162081904Y-107620963D02*
X162081904Y-107420963D01*
X162081904Y-107420963D02*
X162177142Y-107420963D01*
X162253333Y-107601916D02*
X162262856Y-107611440D01*
X162262856Y-107611440D02*
X162253333Y-107620963D01*
X162253333Y-107620963D02*
X162243809Y-107611440D01*
X162243809Y-107611440D02*
X162253333Y-107601916D01*
X162253333Y-107601916D02*
X162253333Y-107620963D01*
X162462856Y-107601916D02*
X162453332Y-107611440D01*
X162453332Y-107611440D02*
X162424761Y-107620963D01*
X162424761Y-107620963D02*
X162405713Y-107620963D01*
X162405713Y-107620963D02*
X162377142Y-107611440D01*
X162377142Y-107611440D02*
X162358094Y-107592392D01*
X162358094Y-107592392D02*
X162348571Y-107573344D01*
X162348571Y-107573344D02*
X162339047Y-107535249D01*
X162339047Y-107535249D02*
X162339047Y-107506678D01*
X162339047Y-107506678D02*
X162348571Y-107468582D01*
X162348571Y-107468582D02*
X162358094Y-107449535D01*
X162358094Y-107449535D02*
X162377142Y-107430487D01*
X162377142Y-107430487D02*
X162405713Y-107420963D01*
X162405713Y-107420963D02*
X162424761Y-107420963D01*
X162424761Y-107420963D02*
X162453332Y-107430487D01*
X162453332Y-107430487D02*
X162462856Y-107440011D01*
X162634285Y-107487630D02*
X162634285Y-107620963D01*
X162548571Y-107487630D02*
X162548571Y-107592392D01*
X162548571Y-107592392D02*
X162558094Y-107611440D01*
X162558094Y-107611440D02*
X162577142Y-107620963D01*
X162577142Y-107620963D02*
X162605713Y-107620963D01*
X162605713Y-107620963D02*
X162624761Y-107611440D01*
X162624761Y-107611440D02*
X162634285Y-107601916D01*
X162853332Y-107487630D02*
X162929523Y-107487630D01*
X162881904Y-107420963D02*
X162881904Y-107592392D01*
X162881904Y-107592392D02*
X162891427Y-107611440D01*
X162891427Y-107611440D02*
X162910475Y-107620963D01*
X162910475Y-107620963D02*
X162929523Y-107620963D01*
X162996190Y-107620963D02*
X162996190Y-107487630D01*
X162996190Y-107525725D02*
X163005713Y-107506678D01*
X163005713Y-107506678D02*
X163015237Y-107497154D01*
X163015237Y-107497154D02*
X163034285Y-107487630D01*
X163034285Y-107487630D02*
X163053332Y-107487630D01*
X163205714Y-107620963D02*
X163205714Y-107516201D01*
X163205714Y-107516201D02*
X163196190Y-107497154D01*
X163196190Y-107497154D02*
X163177142Y-107487630D01*
X163177142Y-107487630D02*
X163139047Y-107487630D01*
X163139047Y-107487630D02*
X163120000Y-107497154D01*
X163205714Y-107611440D02*
X163186666Y-107620963D01*
X163186666Y-107620963D02*
X163139047Y-107620963D01*
X163139047Y-107620963D02*
X163120000Y-107611440D01*
X163120000Y-107611440D02*
X163110476Y-107592392D01*
X163110476Y-107592392D02*
X163110476Y-107573344D01*
X163110476Y-107573344D02*
X163120000Y-107554297D01*
X163120000Y-107554297D02*
X163139047Y-107544773D01*
X163139047Y-107544773D02*
X163186666Y-107544773D01*
X163186666Y-107544773D02*
X163205714Y-107535249D01*
X163386666Y-107611440D02*
X163367618Y-107620963D01*
X163367618Y-107620963D02*
X163329523Y-107620963D01*
X163329523Y-107620963D02*
X163310475Y-107611440D01*
X163310475Y-107611440D02*
X163300952Y-107601916D01*
X163300952Y-107601916D02*
X163291428Y-107582868D01*
X163291428Y-107582868D02*
X163291428Y-107525725D01*
X163291428Y-107525725D02*
X163300952Y-107506678D01*
X163300952Y-107506678D02*
X163310475Y-107497154D01*
X163310475Y-107497154D02*
X163329523Y-107487630D01*
X163329523Y-107487630D02*
X163367618Y-107487630D01*
X163367618Y-107487630D02*
X163386666Y-107497154D01*
X163472381Y-107620963D02*
X163472381Y-107420963D01*
X163491428Y-107544773D02*
X163548571Y-107620963D01*
X163548571Y-107487630D02*
X163472381Y-107563820D01*
X163624762Y-107611440D02*
X163643809Y-107620963D01*
X163643809Y-107620963D02*
X163681905Y-107620963D01*
X163681905Y-107620963D02*
X163700952Y-107611440D01*
X163700952Y-107611440D02*
X163710476Y-107592392D01*
X163710476Y-107592392D02*
X163710476Y-107582868D01*
X163710476Y-107582868D02*
X163700952Y-107563820D01*
X163700952Y-107563820D02*
X163681905Y-107554297D01*
X163681905Y-107554297D02*
X163653333Y-107554297D01*
X163653333Y-107554297D02*
X163634286Y-107544773D01*
X163634286Y-107544773D02*
X163624762Y-107525725D01*
X163624762Y-107525725D02*
X163624762Y-107516201D01*
X163624762Y-107516201D02*
X163634286Y-107497154D01*
X163634286Y-107497154D02*
X163653333Y-107487630D01*
X163653333Y-107487630D02*
X163681905Y-107487630D01*
X163681905Y-107487630D02*
X163700952Y-107497154D01*
X156405715Y-108020963D02*
X156405715Y-107820963D01*
X156520000Y-108020963D02*
X156434286Y-107906678D01*
X156520000Y-107820963D02*
X156405715Y-107935249D01*
X156605715Y-107916201D02*
X156672381Y-107916201D01*
X156700953Y-108020963D02*
X156605715Y-108020963D01*
X156605715Y-108020963D02*
X156605715Y-107820963D01*
X156605715Y-107820963D02*
X156700953Y-107820963D01*
X156786667Y-107916201D02*
X156853333Y-107916201D01*
X156881905Y-108020963D02*
X156786667Y-108020963D01*
X156786667Y-108020963D02*
X156786667Y-107820963D01*
X156786667Y-107820963D02*
X156881905Y-107820963D01*
X156967619Y-108020963D02*
X156967619Y-107820963D01*
X156967619Y-107820963D02*
X157043809Y-107820963D01*
X157043809Y-107820963D02*
X157062857Y-107830487D01*
X157062857Y-107830487D02*
X157072380Y-107840011D01*
X157072380Y-107840011D02*
X157081904Y-107859059D01*
X157081904Y-107859059D02*
X157081904Y-107887630D01*
X157081904Y-107887630D02*
X157072380Y-107906678D01*
X157072380Y-107906678D02*
X157062857Y-107916201D01*
X157062857Y-107916201D02*
X157043809Y-107925725D01*
X157043809Y-107925725D02*
X156967619Y-107925725D01*
X157167619Y-107944773D02*
X157320000Y-107944773D01*
X157453333Y-107820963D02*
X157491428Y-107820963D01*
X157491428Y-107820963D02*
X157510476Y-107830487D01*
X157510476Y-107830487D02*
X157529523Y-107849535D01*
X157529523Y-107849535D02*
X157539047Y-107887630D01*
X157539047Y-107887630D02*
X157539047Y-107954297D01*
X157539047Y-107954297D02*
X157529523Y-107992392D01*
X157529523Y-107992392D02*
X157510476Y-108011440D01*
X157510476Y-108011440D02*
X157491428Y-108020963D01*
X157491428Y-108020963D02*
X157453333Y-108020963D01*
X157453333Y-108020963D02*
X157434285Y-108011440D01*
X157434285Y-108011440D02*
X157415238Y-107992392D01*
X157415238Y-107992392D02*
X157405714Y-107954297D01*
X157405714Y-107954297D02*
X157405714Y-107887630D01*
X157405714Y-107887630D02*
X157415238Y-107849535D01*
X157415238Y-107849535D02*
X157434285Y-107830487D01*
X157434285Y-107830487D02*
X157453333Y-107820963D01*
X157624762Y-107820963D02*
X157624762Y-107982868D01*
X157624762Y-107982868D02*
X157634285Y-108001916D01*
X157634285Y-108001916D02*
X157643809Y-108011440D01*
X157643809Y-108011440D02*
X157662857Y-108020963D01*
X157662857Y-108020963D02*
X157700952Y-108020963D01*
X157700952Y-108020963D02*
X157720000Y-108011440D01*
X157720000Y-108011440D02*
X157729523Y-108001916D01*
X157729523Y-108001916D02*
X157739047Y-107982868D01*
X157739047Y-107982868D02*
X157739047Y-107820963D01*
X157805714Y-107820963D02*
X157920000Y-107820963D01*
X157862857Y-108020963D02*
X157862857Y-107820963D01*
X158120000Y-107820963D02*
X158253333Y-107820963D01*
X158253333Y-107820963D02*
X158120000Y-108020963D01*
X158120000Y-108020963D02*
X158253333Y-108020963D01*
X158367619Y-107820963D02*
X158405714Y-107820963D01*
X158405714Y-107820963D02*
X158424762Y-107830487D01*
X158424762Y-107830487D02*
X158443809Y-107849535D01*
X158443809Y-107849535D02*
X158453333Y-107887630D01*
X158453333Y-107887630D02*
X158453333Y-107954297D01*
X158453333Y-107954297D02*
X158443809Y-107992392D01*
X158443809Y-107992392D02*
X158424762Y-108011440D01*
X158424762Y-108011440D02*
X158405714Y-108020963D01*
X158405714Y-108020963D02*
X158367619Y-108020963D01*
X158367619Y-108020963D02*
X158348571Y-108011440D01*
X158348571Y-108011440D02*
X158329524Y-107992392D01*
X158329524Y-107992392D02*
X158320000Y-107954297D01*
X158320000Y-107954297D02*
X158320000Y-107887630D01*
X158320000Y-107887630D02*
X158329524Y-107849535D01*
X158329524Y-107849535D02*
X158348571Y-107830487D01*
X158348571Y-107830487D02*
X158367619Y-107820963D01*
X158539048Y-108020963D02*
X158539048Y-107820963D01*
X158539048Y-107820963D02*
X158653333Y-108020963D01*
X158653333Y-108020963D02*
X158653333Y-107820963D01*
X158748572Y-107916201D02*
X158815238Y-107916201D01*
X158843810Y-108020963D02*
X158748572Y-108020963D01*
X158748572Y-108020963D02*
X158748572Y-107820963D01*
X158748572Y-107820963D02*
X158843810Y-107820963D01*
X156539047Y-107620963D02*
X156539047Y-107420963D01*
X156539047Y-107420963D02*
X156653332Y-107620963D01*
X156653332Y-107620963D02*
X156653332Y-107420963D01*
X156777142Y-107620963D02*
X156758094Y-107611440D01*
X156758094Y-107611440D02*
X156748571Y-107601916D01*
X156748571Y-107601916D02*
X156739047Y-107582868D01*
X156739047Y-107582868D02*
X156739047Y-107525725D01*
X156739047Y-107525725D02*
X156748571Y-107506678D01*
X156748571Y-107506678D02*
X156758094Y-107497154D01*
X156758094Y-107497154D02*
X156777142Y-107487630D01*
X156777142Y-107487630D02*
X156805713Y-107487630D01*
X156805713Y-107487630D02*
X156824761Y-107497154D01*
X156824761Y-107497154D02*
X156834285Y-107506678D01*
X156834285Y-107506678D02*
X156843809Y-107525725D01*
X156843809Y-107525725D02*
X156843809Y-107582868D01*
X156843809Y-107582868D02*
X156834285Y-107601916D01*
X156834285Y-107601916D02*
X156824761Y-107611440D01*
X156824761Y-107611440D02*
X156805713Y-107620963D01*
X156805713Y-107620963D02*
X156777142Y-107620963D01*
X157148570Y-107516201D02*
X157081904Y-107516201D01*
X157081904Y-107620963D02*
X157081904Y-107420963D01*
X157081904Y-107420963D02*
X157177142Y-107420963D01*
X157253333Y-107601916D02*
X157262856Y-107611440D01*
X157262856Y-107611440D02*
X157253333Y-107620963D01*
X157253333Y-107620963D02*
X157243809Y-107611440D01*
X157243809Y-107611440D02*
X157253333Y-107601916D01*
X157253333Y-107601916D02*
X157253333Y-107620963D01*
X157462856Y-107601916D02*
X157453332Y-107611440D01*
X157453332Y-107611440D02*
X157424761Y-107620963D01*
X157424761Y-107620963D02*
X157405713Y-107620963D01*
X157405713Y-107620963D02*
X157377142Y-107611440D01*
X157377142Y-107611440D02*
X157358094Y-107592392D01*
X157358094Y-107592392D02*
X157348571Y-107573344D01*
X157348571Y-107573344D02*
X157339047Y-107535249D01*
X157339047Y-107535249D02*
X157339047Y-107506678D01*
X157339047Y-107506678D02*
X157348571Y-107468582D01*
X157348571Y-107468582D02*
X157358094Y-107449535D01*
X157358094Y-107449535D02*
X157377142Y-107430487D01*
X157377142Y-107430487D02*
X157405713Y-107420963D01*
X157405713Y-107420963D02*
X157424761Y-107420963D01*
X157424761Y-107420963D02*
X157453332Y-107430487D01*
X157453332Y-107430487D02*
X157462856Y-107440011D01*
X157634285Y-107487630D02*
X157634285Y-107620963D01*
X157548571Y-107487630D02*
X157548571Y-107592392D01*
X157548571Y-107592392D02*
X157558094Y-107611440D01*
X157558094Y-107611440D02*
X157577142Y-107620963D01*
X157577142Y-107620963D02*
X157605713Y-107620963D01*
X157605713Y-107620963D02*
X157624761Y-107611440D01*
X157624761Y-107611440D02*
X157634285Y-107601916D01*
X157853332Y-107487630D02*
X157929523Y-107487630D01*
X157881904Y-107420963D02*
X157881904Y-107592392D01*
X157881904Y-107592392D02*
X157891427Y-107611440D01*
X157891427Y-107611440D02*
X157910475Y-107620963D01*
X157910475Y-107620963D02*
X157929523Y-107620963D01*
X157996190Y-107620963D02*
X157996190Y-107487630D01*
X157996190Y-107525725D02*
X158005713Y-107506678D01*
X158005713Y-107506678D02*
X158015237Y-107497154D01*
X158015237Y-107497154D02*
X158034285Y-107487630D01*
X158034285Y-107487630D02*
X158053332Y-107487630D01*
X158205714Y-107620963D02*
X158205714Y-107516201D01*
X158205714Y-107516201D02*
X158196190Y-107497154D01*
X158196190Y-107497154D02*
X158177142Y-107487630D01*
X158177142Y-107487630D02*
X158139047Y-107487630D01*
X158139047Y-107487630D02*
X158120000Y-107497154D01*
X158205714Y-107611440D02*
X158186666Y-107620963D01*
X158186666Y-107620963D02*
X158139047Y-107620963D01*
X158139047Y-107620963D02*
X158120000Y-107611440D01*
X158120000Y-107611440D02*
X158110476Y-107592392D01*
X158110476Y-107592392D02*
X158110476Y-107573344D01*
X158110476Y-107573344D02*
X158120000Y-107554297D01*
X158120000Y-107554297D02*
X158139047Y-107544773D01*
X158139047Y-107544773D02*
X158186666Y-107544773D01*
X158186666Y-107544773D02*
X158205714Y-107535249D01*
X158386666Y-107611440D02*
X158367618Y-107620963D01*
X158367618Y-107620963D02*
X158329523Y-107620963D01*
X158329523Y-107620963D02*
X158310475Y-107611440D01*
X158310475Y-107611440D02*
X158300952Y-107601916D01*
X158300952Y-107601916D02*
X158291428Y-107582868D01*
X158291428Y-107582868D02*
X158291428Y-107525725D01*
X158291428Y-107525725D02*
X158300952Y-107506678D01*
X158300952Y-107506678D02*
X158310475Y-107497154D01*
X158310475Y-107497154D02*
X158329523Y-107487630D01*
X158329523Y-107487630D02*
X158367618Y-107487630D01*
X158367618Y-107487630D02*
X158386666Y-107497154D01*
X158472381Y-107620963D02*
X158472381Y-107420963D01*
X158491428Y-107544773D02*
X158548571Y-107620963D01*
X158548571Y-107487630D02*
X158472381Y-107563820D01*
X158624762Y-107611440D02*
X158643809Y-107620963D01*
X158643809Y-107620963D02*
X158681905Y-107620963D01*
X158681905Y-107620963D02*
X158700952Y-107611440D01*
X158700952Y-107611440D02*
X158710476Y-107592392D01*
X158710476Y-107592392D02*
X158710476Y-107582868D01*
X158710476Y-107582868D02*
X158700952Y-107563820D01*
X158700952Y-107563820D02*
X158681905Y-107554297D01*
X158681905Y-107554297D02*
X158653333Y-107554297D01*
X158653333Y-107554297D02*
X158634286Y-107544773D01*
X158634286Y-107544773D02*
X158624762Y-107525725D01*
X158624762Y-107525725D02*
X158624762Y-107516201D01*
X158624762Y-107516201D02*
X158634286Y-107497154D01*
X158634286Y-107497154D02*
X158653333Y-107487630D01*
X158653333Y-107487630D02*
X158681905Y-107487630D01*
X158681905Y-107487630D02*
X158700952Y-107497154D01*
X161519047Y-116070963D02*
X161519047Y-115870963D01*
X161519047Y-115870963D02*
X161633332Y-116070963D01*
X161633332Y-116070963D02*
X161633332Y-115870963D01*
X161757142Y-116070963D02*
X161738094Y-116061440D01*
X161738094Y-116061440D02*
X161728571Y-116051916D01*
X161728571Y-116051916D02*
X161719047Y-116032868D01*
X161719047Y-116032868D02*
X161719047Y-115975725D01*
X161719047Y-115975725D02*
X161728571Y-115956678D01*
X161728571Y-115956678D02*
X161738094Y-115947154D01*
X161738094Y-115947154D02*
X161757142Y-115937630D01*
X161757142Y-115937630D02*
X161785713Y-115937630D01*
X161785713Y-115937630D02*
X161804761Y-115947154D01*
X161804761Y-115947154D02*
X161814285Y-115956678D01*
X161814285Y-115956678D02*
X161823809Y-115975725D01*
X161823809Y-115975725D02*
X161823809Y-116032868D01*
X161823809Y-116032868D02*
X161814285Y-116051916D01*
X161814285Y-116051916D02*
X161804761Y-116061440D01*
X161804761Y-116061440D02*
X161785713Y-116070963D01*
X161785713Y-116070963D02*
X161757142Y-116070963D01*
X162128570Y-115966201D02*
X162061904Y-115966201D01*
X162061904Y-116070963D02*
X162061904Y-115870963D01*
X162061904Y-115870963D02*
X162157142Y-115870963D01*
X162233333Y-116051916D02*
X162242856Y-116061440D01*
X162242856Y-116061440D02*
X162233333Y-116070963D01*
X162233333Y-116070963D02*
X162223809Y-116061440D01*
X162223809Y-116061440D02*
X162233333Y-116051916D01*
X162233333Y-116051916D02*
X162233333Y-116070963D01*
X162442856Y-116051916D02*
X162433332Y-116061440D01*
X162433332Y-116061440D02*
X162404761Y-116070963D01*
X162404761Y-116070963D02*
X162385713Y-116070963D01*
X162385713Y-116070963D02*
X162357142Y-116061440D01*
X162357142Y-116061440D02*
X162338094Y-116042392D01*
X162338094Y-116042392D02*
X162328571Y-116023344D01*
X162328571Y-116023344D02*
X162319047Y-115985249D01*
X162319047Y-115985249D02*
X162319047Y-115956678D01*
X162319047Y-115956678D02*
X162328571Y-115918582D01*
X162328571Y-115918582D02*
X162338094Y-115899535D01*
X162338094Y-115899535D02*
X162357142Y-115880487D01*
X162357142Y-115880487D02*
X162385713Y-115870963D01*
X162385713Y-115870963D02*
X162404761Y-115870963D01*
X162404761Y-115870963D02*
X162433332Y-115880487D01*
X162433332Y-115880487D02*
X162442856Y-115890011D01*
X162614285Y-115937630D02*
X162614285Y-116070963D01*
X162528571Y-115937630D02*
X162528571Y-116042392D01*
X162528571Y-116042392D02*
X162538094Y-116061440D01*
X162538094Y-116061440D02*
X162557142Y-116070963D01*
X162557142Y-116070963D02*
X162585713Y-116070963D01*
X162585713Y-116070963D02*
X162604761Y-116061440D01*
X162604761Y-116061440D02*
X162614285Y-116051916D01*
X162833332Y-115937630D02*
X162909523Y-115937630D01*
X162861904Y-115870963D02*
X162861904Y-116042392D01*
X162861904Y-116042392D02*
X162871427Y-116061440D01*
X162871427Y-116061440D02*
X162890475Y-116070963D01*
X162890475Y-116070963D02*
X162909523Y-116070963D01*
X162976190Y-116070963D02*
X162976190Y-115937630D01*
X162976190Y-115975725D02*
X162985713Y-115956678D01*
X162985713Y-115956678D02*
X162995237Y-115947154D01*
X162995237Y-115947154D02*
X163014285Y-115937630D01*
X163014285Y-115937630D02*
X163033332Y-115937630D01*
X163185714Y-116070963D02*
X163185714Y-115966201D01*
X163185714Y-115966201D02*
X163176190Y-115947154D01*
X163176190Y-115947154D02*
X163157142Y-115937630D01*
X163157142Y-115937630D02*
X163119047Y-115937630D01*
X163119047Y-115937630D02*
X163100000Y-115947154D01*
X163185714Y-116061440D02*
X163166666Y-116070963D01*
X163166666Y-116070963D02*
X163119047Y-116070963D01*
X163119047Y-116070963D02*
X163100000Y-116061440D01*
X163100000Y-116061440D02*
X163090476Y-116042392D01*
X163090476Y-116042392D02*
X163090476Y-116023344D01*
X163090476Y-116023344D02*
X163100000Y-116004297D01*
X163100000Y-116004297D02*
X163119047Y-115994773D01*
X163119047Y-115994773D02*
X163166666Y-115994773D01*
X163166666Y-115994773D02*
X163185714Y-115985249D01*
X163366666Y-116061440D02*
X163347618Y-116070963D01*
X163347618Y-116070963D02*
X163309523Y-116070963D01*
X163309523Y-116070963D02*
X163290475Y-116061440D01*
X163290475Y-116061440D02*
X163280952Y-116051916D01*
X163280952Y-116051916D02*
X163271428Y-116032868D01*
X163271428Y-116032868D02*
X163271428Y-115975725D01*
X163271428Y-115975725D02*
X163280952Y-115956678D01*
X163280952Y-115956678D02*
X163290475Y-115947154D01*
X163290475Y-115947154D02*
X163309523Y-115937630D01*
X163309523Y-115937630D02*
X163347618Y-115937630D01*
X163347618Y-115937630D02*
X163366666Y-115947154D01*
X163452381Y-116070963D02*
X163452381Y-115870963D01*
X163471428Y-115994773D02*
X163528571Y-116070963D01*
X163528571Y-115937630D02*
X163452381Y-116013820D01*
X163604762Y-116061440D02*
X163623809Y-116070963D01*
X163623809Y-116070963D02*
X163661905Y-116070963D01*
X163661905Y-116070963D02*
X163680952Y-116061440D01*
X163680952Y-116061440D02*
X163690476Y-116042392D01*
X163690476Y-116042392D02*
X163690476Y-116032868D01*
X163690476Y-116032868D02*
X163680952Y-116013820D01*
X163680952Y-116013820D02*
X163661905Y-116004297D01*
X163661905Y-116004297D02*
X163633333Y-116004297D01*
X163633333Y-116004297D02*
X163614286Y-115994773D01*
X163614286Y-115994773D02*
X163604762Y-115975725D01*
X163604762Y-115975725D02*
X163604762Y-115966201D01*
X163604762Y-115966201D02*
X163614286Y-115947154D01*
X163614286Y-115947154D02*
X163633333Y-115937630D01*
X163633333Y-115937630D02*
X163661905Y-115937630D01*
X163661905Y-115937630D02*
X163680952Y-115947154D01*
X156385715Y-116470963D02*
X156385715Y-116270963D01*
X156500000Y-116470963D02*
X156414286Y-116356678D01*
X156500000Y-116270963D02*
X156385715Y-116385249D01*
X156585715Y-116366201D02*
X156652381Y-116366201D01*
X156680953Y-116470963D02*
X156585715Y-116470963D01*
X156585715Y-116470963D02*
X156585715Y-116270963D01*
X156585715Y-116270963D02*
X156680953Y-116270963D01*
X156766667Y-116366201D02*
X156833333Y-116366201D01*
X156861905Y-116470963D02*
X156766667Y-116470963D01*
X156766667Y-116470963D02*
X156766667Y-116270963D01*
X156766667Y-116270963D02*
X156861905Y-116270963D01*
X156947619Y-116470963D02*
X156947619Y-116270963D01*
X156947619Y-116270963D02*
X157023809Y-116270963D01*
X157023809Y-116270963D02*
X157042857Y-116280487D01*
X157042857Y-116280487D02*
X157052380Y-116290011D01*
X157052380Y-116290011D02*
X157061904Y-116309059D01*
X157061904Y-116309059D02*
X157061904Y-116337630D01*
X157061904Y-116337630D02*
X157052380Y-116356678D01*
X157052380Y-116356678D02*
X157042857Y-116366201D01*
X157042857Y-116366201D02*
X157023809Y-116375725D01*
X157023809Y-116375725D02*
X156947619Y-116375725D01*
X157147619Y-116394773D02*
X157300000Y-116394773D01*
X157433333Y-116270963D02*
X157471428Y-116270963D01*
X157471428Y-116270963D02*
X157490476Y-116280487D01*
X157490476Y-116280487D02*
X157509523Y-116299535D01*
X157509523Y-116299535D02*
X157519047Y-116337630D01*
X157519047Y-116337630D02*
X157519047Y-116404297D01*
X157519047Y-116404297D02*
X157509523Y-116442392D01*
X157509523Y-116442392D02*
X157490476Y-116461440D01*
X157490476Y-116461440D02*
X157471428Y-116470963D01*
X157471428Y-116470963D02*
X157433333Y-116470963D01*
X157433333Y-116470963D02*
X157414285Y-116461440D01*
X157414285Y-116461440D02*
X157395238Y-116442392D01*
X157395238Y-116442392D02*
X157385714Y-116404297D01*
X157385714Y-116404297D02*
X157385714Y-116337630D01*
X157385714Y-116337630D02*
X157395238Y-116299535D01*
X157395238Y-116299535D02*
X157414285Y-116280487D01*
X157414285Y-116280487D02*
X157433333Y-116270963D01*
X157604762Y-116270963D02*
X157604762Y-116432868D01*
X157604762Y-116432868D02*
X157614285Y-116451916D01*
X157614285Y-116451916D02*
X157623809Y-116461440D01*
X157623809Y-116461440D02*
X157642857Y-116470963D01*
X157642857Y-116470963D02*
X157680952Y-116470963D01*
X157680952Y-116470963D02*
X157700000Y-116461440D01*
X157700000Y-116461440D02*
X157709523Y-116451916D01*
X157709523Y-116451916D02*
X157719047Y-116432868D01*
X157719047Y-116432868D02*
X157719047Y-116270963D01*
X157785714Y-116270963D02*
X157900000Y-116270963D01*
X157842857Y-116470963D02*
X157842857Y-116270963D01*
X158100000Y-116270963D02*
X158233333Y-116270963D01*
X158233333Y-116270963D02*
X158100000Y-116470963D01*
X158100000Y-116470963D02*
X158233333Y-116470963D01*
X158347619Y-116270963D02*
X158385714Y-116270963D01*
X158385714Y-116270963D02*
X158404762Y-116280487D01*
X158404762Y-116280487D02*
X158423809Y-116299535D01*
X158423809Y-116299535D02*
X158433333Y-116337630D01*
X158433333Y-116337630D02*
X158433333Y-116404297D01*
X158433333Y-116404297D02*
X158423809Y-116442392D01*
X158423809Y-116442392D02*
X158404762Y-116461440D01*
X158404762Y-116461440D02*
X158385714Y-116470963D01*
X158385714Y-116470963D02*
X158347619Y-116470963D01*
X158347619Y-116470963D02*
X158328571Y-116461440D01*
X158328571Y-116461440D02*
X158309524Y-116442392D01*
X158309524Y-116442392D02*
X158300000Y-116404297D01*
X158300000Y-116404297D02*
X158300000Y-116337630D01*
X158300000Y-116337630D02*
X158309524Y-116299535D01*
X158309524Y-116299535D02*
X158328571Y-116280487D01*
X158328571Y-116280487D02*
X158347619Y-116270963D01*
X158519048Y-116470963D02*
X158519048Y-116270963D01*
X158519048Y-116270963D02*
X158633333Y-116470963D01*
X158633333Y-116470963D02*
X158633333Y-116270963D01*
X158728572Y-116366201D02*
X158795238Y-116366201D01*
X158823810Y-116470963D02*
X158728572Y-116470963D01*
X158728572Y-116470963D02*
X158728572Y-116270963D01*
X158728572Y-116270963D02*
X158823810Y-116270963D01*
X161385715Y-116470963D02*
X161385715Y-116270963D01*
X161500000Y-116470963D02*
X161414286Y-116356678D01*
X161500000Y-116270963D02*
X161385715Y-116385249D01*
X161585715Y-116366201D02*
X161652381Y-116366201D01*
X161680953Y-116470963D02*
X161585715Y-116470963D01*
X161585715Y-116470963D02*
X161585715Y-116270963D01*
X161585715Y-116270963D02*
X161680953Y-116270963D01*
X161766667Y-116366201D02*
X161833333Y-116366201D01*
X161861905Y-116470963D02*
X161766667Y-116470963D01*
X161766667Y-116470963D02*
X161766667Y-116270963D01*
X161766667Y-116270963D02*
X161861905Y-116270963D01*
X161947619Y-116470963D02*
X161947619Y-116270963D01*
X161947619Y-116270963D02*
X162023809Y-116270963D01*
X162023809Y-116270963D02*
X162042857Y-116280487D01*
X162042857Y-116280487D02*
X162052380Y-116290011D01*
X162052380Y-116290011D02*
X162061904Y-116309059D01*
X162061904Y-116309059D02*
X162061904Y-116337630D01*
X162061904Y-116337630D02*
X162052380Y-116356678D01*
X162052380Y-116356678D02*
X162042857Y-116366201D01*
X162042857Y-116366201D02*
X162023809Y-116375725D01*
X162023809Y-116375725D02*
X161947619Y-116375725D01*
X162147619Y-116394773D02*
X162300000Y-116394773D01*
X162433333Y-116270963D02*
X162471428Y-116270963D01*
X162471428Y-116270963D02*
X162490476Y-116280487D01*
X162490476Y-116280487D02*
X162509523Y-116299535D01*
X162509523Y-116299535D02*
X162519047Y-116337630D01*
X162519047Y-116337630D02*
X162519047Y-116404297D01*
X162519047Y-116404297D02*
X162509523Y-116442392D01*
X162509523Y-116442392D02*
X162490476Y-116461440D01*
X162490476Y-116461440D02*
X162471428Y-116470963D01*
X162471428Y-116470963D02*
X162433333Y-116470963D01*
X162433333Y-116470963D02*
X162414285Y-116461440D01*
X162414285Y-116461440D02*
X162395238Y-116442392D01*
X162395238Y-116442392D02*
X162385714Y-116404297D01*
X162385714Y-116404297D02*
X162385714Y-116337630D01*
X162385714Y-116337630D02*
X162395238Y-116299535D01*
X162395238Y-116299535D02*
X162414285Y-116280487D01*
X162414285Y-116280487D02*
X162433333Y-116270963D01*
X162604762Y-116270963D02*
X162604762Y-116432868D01*
X162604762Y-116432868D02*
X162614285Y-116451916D01*
X162614285Y-116451916D02*
X162623809Y-116461440D01*
X162623809Y-116461440D02*
X162642857Y-116470963D01*
X162642857Y-116470963D02*
X162680952Y-116470963D01*
X162680952Y-116470963D02*
X162700000Y-116461440D01*
X162700000Y-116461440D02*
X162709523Y-116451916D01*
X162709523Y-116451916D02*
X162719047Y-116432868D01*
X162719047Y-116432868D02*
X162719047Y-116270963D01*
X162785714Y-116270963D02*
X162900000Y-116270963D01*
X162842857Y-116470963D02*
X162842857Y-116270963D01*
X163100000Y-116270963D02*
X163233333Y-116270963D01*
X163233333Y-116270963D02*
X163100000Y-116470963D01*
X163100000Y-116470963D02*
X163233333Y-116470963D01*
X163347619Y-116270963D02*
X163385714Y-116270963D01*
X163385714Y-116270963D02*
X163404762Y-116280487D01*
X163404762Y-116280487D02*
X163423809Y-116299535D01*
X163423809Y-116299535D02*
X163433333Y-116337630D01*
X163433333Y-116337630D02*
X163433333Y-116404297D01*
X163433333Y-116404297D02*
X163423809Y-116442392D01*
X163423809Y-116442392D02*
X163404762Y-116461440D01*
X163404762Y-116461440D02*
X163385714Y-116470963D01*
X163385714Y-116470963D02*
X163347619Y-116470963D01*
X163347619Y-116470963D02*
X163328571Y-116461440D01*
X163328571Y-116461440D02*
X163309524Y-116442392D01*
X163309524Y-116442392D02*
X163300000Y-116404297D01*
X163300000Y-116404297D02*
X163300000Y-116337630D01*
X163300000Y-116337630D02*
X163309524Y-116299535D01*
X163309524Y-116299535D02*
X163328571Y-116280487D01*
X163328571Y-116280487D02*
X163347619Y-116270963D01*
X163519048Y-116470963D02*
X163519048Y-116270963D01*
X163519048Y-116270963D02*
X163633333Y-116470963D01*
X163633333Y-116470963D02*
X163633333Y-116270963D01*
X163728572Y-116366201D02*
X163795238Y-116366201D01*
X163823810Y-116470963D02*
X163728572Y-116470963D01*
X163728572Y-116470963D02*
X163728572Y-116270963D01*
X163728572Y-116270963D02*
X163823810Y-116270963D01*
X156519047Y-116070963D02*
X156519047Y-115870963D01*
X156519047Y-115870963D02*
X156633332Y-116070963D01*
X156633332Y-116070963D02*
X156633332Y-115870963D01*
X156757142Y-116070963D02*
X156738094Y-116061440D01*
X156738094Y-116061440D02*
X156728571Y-116051916D01*
X156728571Y-116051916D02*
X156719047Y-116032868D01*
X156719047Y-116032868D02*
X156719047Y-115975725D01*
X156719047Y-115975725D02*
X156728571Y-115956678D01*
X156728571Y-115956678D02*
X156738094Y-115947154D01*
X156738094Y-115947154D02*
X156757142Y-115937630D01*
X156757142Y-115937630D02*
X156785713Y-115937630D01*
X156785713Y-115937630D02*
X156804761Y-115947154D01*
X156804761Y-115947154D02*
X156814285Y-115956678D01*
X156814285Y-115956678D02*
X156823809Y-115975725D01*
X156823809Y-115975725D02*
X156823809Y-116032868D01*
X156823809Y-116032868D02*
X156814285Y-116051916D01*
X156814285Y-116051916D02*
X156804761Y-116061440D01*
X156804761Y-116061440D02*
X156785713Y-116070963D01*
X156785713Y-116070963D02*
X156757142Y-116070963D01*
X157128570Y-115966201D02*
X157061904Y-115966201D01*
X157061904Y-116070963D02*
X157061904Y-115870963D01*
X157061904Y-115870963D02*
X157157142Y-115870963D01*
X157233333Y-116051916D02*
X157242856Y-116061440D01*
X157242856Y-116061440D02*
X157233333Y-116070963D01*
X157233333Y-116070963D02*
X157223809Y-116061440D01*
X157223809Y-116061440D02*
X157233333Y-116051916D01*
X157233333Y-116051916D02*
X157233333Y-116070963D01*
X157442856Y-116051916D02*
X157433332Y-116061440D01*
X157433332Y-116061440D02*
X157404761Y-116070963D01*
X157404761Y-116070963D02*
X157385713Y-116070963D01*
X157385713Y-116070963D02*
X157357142Y-116061440D01*
X157357142Y-116061440D02*
X157338094Y-116042392D01*
X157338094Y-116042392D02*
X157328571Y-116023344D01*
X157328571Y-116023344D02*
X157319047Y-115985249D01*
X157319047Y-115985249D02*
X157319047Y-115956678D01*
X157319047Y-115956678D02*
X157328571Y-115918582D01*
X157328571Y-115918582D02*
X157338094Y-115899535D01*
X157338094Y-115899535D02*
X157357142Y-115880487D01*
X157357142Y-115880487D02*
X157385713Y-115870963D01*
X157385713Y-115870963D02*
X157404761Y-115870963D01*
X157404761Y-115870963D02*
X157433332Y-115880487D01*
X157433332Y-115880487D02*
X157442856Y-115890011D01*
X157614285Y-115937630D02*
X157614285Y-116070963D01*
X157528571Y-115937630D02*
X157528571Y-116042392D01*
X157528571Y-116042392D02*
X157538094Y-116061440D01*
X157538094Y-116061440D02*
X157557142Y-116070963D01*
X157557142Y-116070963D02*
X157585713Y-116070963D01*
X157585713Y-116070963D02*
X157604761Y-116061440D01*
X157604761Y-116061440D02*
X157614285Y-116051916D01*
X157833332Y-115937630D02*
X157909523Y-115937630D01*
X157861904Y-115870963D02*
X157861904Y-116042392D01*
X157861904Y-116042392D02*
X157871427Y-116061440D01*
X157871427Y-116061440D02*
X157890475Y-116070963D01*
X157890475Y-116070963D02*
X157909523Y-116070963D01*
X157976190Y-116070963D02*
X157976190Y-115937630D01*
X157976190Y-115975725D02*
X157985713Y-115956678D01*
X157985713Y-115956678D02*
X157995237Y-115947154D01*
X157995237Y-115947154D02*
X158014285Y-115937630D01*
X158014285Y-115937630D02*
X158033332Y-115937630D01*
X158185714Y-116070963D02*
X158185714Y-115966201D01*
X158185714Y-115966201D02*
X158176190Y-115947154D01*
X158176190Y-115947154D02*
X158157142Y-115937630D01*
X158157142Y-115937630D02*
X158119047Y-115937630D01*
X158119047Y-115937630D02*
X158100000Y-115947154D01*
X158185714Y-116061440D02*
X158166666Y-116070963D01*
X158166666Y-116070963D02*
X158119047Y-116070963D01*
X158119047Y-116070963D02*
X158100000Y-116061440D01*
X158100000Y-116061440D02*
X158090476Y-116042392D01*
X158090476Y-116042392D02*
X158090476Y-116023344D01*
X158090476Y-116023344D02*
X158100000Y-116004297D01*
X158100000Y-116004297D02*
X158119047Y-115994773D01*
X158119047Y-115994773D02*
X158166666Y-115994773D01*
X158166666Y-115994773D02*
X158185714Y-115985249D01*
X158366666Y-116061440D02*
X158347618Y-116070963D01*
X158347618Y-116070963D02*
X158309523Y-116070963D01*
X158309523Y-116070963D02*
X158290475Y-116061440D01*
X158290475Y-116061440D02*
X158280952Y-116051916D01*
X158280952Y-116051916D02*
X158271428Y-116032868D01*
X158271428Y-116032868D02*
X158271428Y-115975725D01*
X158271428Y-115975725D02*
X158280952Y-115956678D01*
X158280952Y-115956678D02*
X158290475Y-115947154D01*
X158290475Y-115947154D02*
X158309523Y-115937630D01*
X158309523Y-115937630D02*
X158347618Y-115937630D01*
X158347618Y-115937630D02*
X158366666Y-115947154D01*
X158452381Y-116070963D02*
X158452381Y-115870963D01*
X158471428Y-115994773D02*
X158528571Y-116070963D01*
X158528571Y-115937630D02*
X158452381Y-116013820D01*
X158604762Y-116061440D02*
X158623809Y-116070963D01*
X158623809Y-116070963D02*
X158661905Y-116070963D01*
X158661905Y-116070963D02*
X158680952Y-116061440D01*
X158680952Y-116061440D02*
X158690476Y-116042392D01*
X158690476Y-116042392D02*
X158690476Y-116032868D01*
X158690476Y-116032868D02*
X158680952Y-116013820D01*
X158680952Y-116013820D02*
X158661905Y-116004297D01*
X158661905Y-116004297D02*
X158633333Y-116004297D01*
X158633333Y-116004297D02*
X158614286Y-115994773D01*
X158614286Y-115994773D02*
X158604762Y-115975725D01*
X158604762Y-115975725D02*
X158604762Y-115966201D01*
X158604762Y-115966201D02*
X158614286Y-115947154D01*
X158614286Y-115947154D02*
X158633333Y-115937630D01*
X158633333Y-115937630D02*
X158661905Y-115937630D01*
X158661905Y-115937630D02*
X158680952Y-115947154D01*
M02*
