M48
INCH
T1C0.0079
T2C0.0236
T3C0.0374
T4C0.0394
T5C0.0433
T6C0.0508
T7C0.0512
T8C0.0520
%
G90
G05
T1
X5.0217Y-4.3288
X5.0217Y-4.3889
X5.0517Y-4.2988
X5.0517Y-4.3589
X5.0517Y-4.4189
X5.0817Y-4.3288
X5.0817Y-4.3889
X5.1117Y-4.2988
X5.1117Y-4.3589
X5.1117Y-4.4189
X5.1417Y-4.3288
X5.1417Y-4.3889
T3
X4.6762Y-3.3461
X4.6762Y-3.4445
X4.6762Y-3.5429
X4.6762Y-3.6413
T4
X5.1681Y-3.6317
X5.1681Y-3.7317
X5.2681Y-3.6317
X5.2681Y-3.7317
X5.3681Y-3.6317
X5.3681Y-3.7317
X5.4681Y-3.6317
X5.4681Y-3.7317
T5
X5.1677Y-2.7343
X5.1677Y-3.2343
T6
X5.3381Y-2.6685
T7
X3.9819Y-2.5791
X4.1787Y-2.5791
X6.2764Y-2.472
X6.2764Y-2.6689
X6.2764Y-2.8657
T8
X5.4168Y-2.4323
X5.4168Y-2.9047
X5.8971Y-2.4323
X5.8971Y-2.9047
T2
G00X4.1339Y-4.4073
M15
G01X4.1339Y-4.4506
M16
G05
G00X4.1339Y-4.5817
M15
G01X4.1339Y-4.6053
M16
G05
G00X4.474Y-4.4073
M15
G01X4.474Y-4.4506
M16
G05
G00X4.474Y-4.5817
M15
G01X4.474Y-4.6053
M16
G05
M30
