%TF.GenerationSoftware,KiCad,Pcbnew,8.0.2*%
%TF.CreationDate,2024-05-29T12:03:12+02:00*%
%TF.ProjectId,IOT_ESP32,494f545f-4553-4503-9332-2e6b69636164,rev?*%
%TF.SameCoordinates,Original*%
%TF.FileFunction,Profile,NP*%
%FSLAX46Y46*%
G04 Gerber Fmt 4.6, Leading zero omitted, Abs format (unit mm)*
G04 Created by KiCad (PCBNEW 8.0.2) date 2024-05-29 12:03:12*
%MOMM*%
%LPD*%
G01*
G04 APERTURE LIST*
%TA.AperFunction,Profile*%
%ADD10C,0.050000*%
%TD*%
%ADD11C,0.150000*%
G04 APERTURE END LIST*
D10*
X98060000Y-59705000D02*
X164640000Y-59705000D01*
X164640000Y-119555000D01*
X98060000Y-119555000D01*
X98060000Y-59705000D01*
X161840000Y-77010000D02*
G75*
G02*
X161840000Y-79590000I0J-1290000D01*
G01*
X161840000Y-77010000D02*
X134910000Y-77010000D01*
X134910000Y-79590000D02*
G75*
G02*
X134910000Y-77010000I0J1290000D01*
G01*
X134910000Y-79590000D02*
X161840000Y-79590000D01*
D11*
X65704819Y-93725237D02*
X65704819Y-94201427D01*
X65704819Y-94201427D02*
X66181009Y-94249046D01*
X66181009Y-94249046D02*
X66133390Y-94201427D01*
X66133390Y-94201427D02*
X66085771Y-94106189D01*
X66085771Y-94106189D02*
X66085771Y-93868094D01*
X66085771Y-93868094D02*
X66133390Y-93772856D01*
X66133390Y-93772856D02*
X66181009Y-93725237D01*
X66181009Y-93725237D02*
X66276247Y-93677618D01*
X66276247Y-93677618D02*
X66514342Y-93677618D01*
X66514342Y-93677618D02*
X66609580Y-93725237D01*
X66609580Y-93725237D02*
X66657200Y-93772856D01*
X66657200Y-93772856D02*
X66704819Y-93868094D01*
X66704819Y-93868094D02*
X66704819Y-94106189D01*
X66704819Y-94106189D02*
X66657200Y-94201427D01*
X66657200Y-94201427D02*
X66609580Y-94249046D01*
X66704819Y-93201427D02*
X66704819Y-93010951D01*
X66704819Y-93010951D02*
X66657200Y-92915713D01*
X66657200Y-92915713D02*
X66609580Y-92868094D01*
X66609580Y-92868094D02*
X66466723Y-92772856D01*
X66466723Y-92772856D02*
X66276247Y-92725237D01*
X66276247Y-92725237D02*
X65895295Y-92725237D01*
X65895295Y-92725237D02*
X65800057Y-92772856D01*
X65800057Y-92772856D02*
X65752438Y-92820475D01*
X65752438Y-92820475D02*
X65704819Y-92915713D01*
X65704819Y-92915713D02*
X65704819Y-93106189D01*
X65704819Y-93106189D02*
X65752438Y-93201427D01*
X65752438Y-93201427D02*
X65800057Y-93249046D01*
X65800057Y-93249046D02*
X65895295Y-93296665D01*
X65895295Y-93296665D02*
X66133390Y-93296665D01*
X66133390Y-93296665D02*
X66228628Y-93249046D01*
X66228628Y-93249046D02*
X66276247Y-93201427D01*
X66276247Y-93201427D02*
X66323866Y-93106189D01*
X66323866Y-93106189D02*
X66323866Y-92915713D01*
X66323866Y-92915713D02*
X66276247Y-92820475D01*
X66276247Y-92820475D02*
X66228628Y-92772856D01*
X66228628Y-92772856D02*
X66133390Y-92725237D01*
X66657200Y-92249046D02*
X66704819Y-92249046D01*
X66704819Y-92249046D02*
X66800057Y-92296665D01*
X66800057Y-92296665D02*
X66847676Y-92344284D01*
X66133390Y-91677618D02*
X66085771Y-91772856D01*
X66085771Y-91772856D02*
X66038152Y-91820475D01*
X66038152Y-91820475D02*
X65942914Y-91868094D01*
X65942914Y-91868094D02*
X65895295Y-91868094D01*
X65895295Y-91868094D02*
X65800057Y-91820475D01*
X65800057Y-91820475D02*
X65752438Y-91772856D01*
X65752438Y-91772856D02*
X65704819Y-91677618D01*
X65704819Y-91677618D02*
X65704819Y-91487142D01*
X65704819Y-91487142D02*
X65752438Y-91391904D01*
X65752438Y-91391904D02*
X65800057Y-91344285D01*
X65800057Y-91344285D02*
X65895295Y-91296666D01*
X65895295Y-91296666D02*
X65942914Y-91296666D01*
X65942914Y-91296666D02*
X66038152Y-91344285D01*
X66038152Y-91344285D02*
X66085771Y-91391904D01*
X66085771Y-91391904D02*
X66133390Y-91487142D01*
X66133390Y-91487142D02*
X66133390Y-91677618D01*
X66133390Y-91677618D02*
X66181009Y-91772856D01*
X66181009Y-91772856D02*
X66228628Y-91820475D01*
X66228628Y-91820475D02*
X66323866Y-91868094D01*
X66323866Y-91868094D02*
X66514342Y-91868094D01*
X66514342Y-91868094D02*
X66609580Y-91820475D01*
X66609580Y-91820475D02*
X66657200Y-91772856D01*
X66657200Y-91772856D02*
X66704819Y-91677618D01*
X66704819Y-91677618D02*
X66704819Y-91487142D01*
X66704819Y-91487142D02*
X66657200Y-91391904D01*
X66657200Y-91391904D02*
X66609580Y-91344285D01*
X66609580Y-91344285D02*
X66514342Y-91296666D01*
X66514342Y-91296666D02*
X66323866Y-91296666D01*
X66323866Y-91296666D02*
X66228628Y-91344285D01*
X66228628Y-91344285D02*
X66181009Y-91391904D01*
X66181009Y-91391904D02*
X66133390Y-91487142D01*
X65704819Y-90391904D02*
X65704819Y-90868094D01*
X65704819Y-90868094D02*
X66181009Y-90915713D01*
X66181009Y-90915713D02*
X66133390Y-90868094D01*
X66133390Y-90868094D02*
X66085771Y-90772856D01*
X66085771Y-90772856D02*
X66085771Y-90534761D01*
X66085771Y-90534761D02*
X66133390Y-90439523D01*
X66133390Y-90439523D02*
X66181009Y-90391904D01*
X66181009Y-90391904D02*
X66276247Y-90344285D01*
X66276247Y-90344285D02*
X66514342Y-90344285D01*
X66514342Y-90344285D02*
X66609580Y-90391904D01*
X66609580Y-90391904D02*
X66657200Y-90439523D01*
X66657200Y-90439523D02*
X66704819Y-90534761D01*
X66704819Y-90534761D02*
X66704819Y-90772856D01*
X66704819Y-90772856D02*
X66657200Y-90868094D01*
X66657200Y-90868094D02*
X66609580Y-90915713D01*
X65704819Y-89725237D02*
X65704819Y-89629999D01*
X65704819Y-89629999D02*
X65752438Y-89534761D01*
X65752438Y-89534761D02*
X65800057Y-89487142D01*
X65800057Y-89487142D02*
X65895295Y-89439523D01*
X65895295Y-89439523D02*
X66085771Y-89391904D01*
X66085771Y-89391904D02*
X66323866Y-89391904D01*
X66323866Y-89391904D02*
X66514342Y-89439523D01*
X66514342Y-89439523D02*
X66609580Y-89487142D01*
X66609580Y-89487142D02*
X66657200Y-89534761D01*
X66657200Y-89534761D02*
X66704819Y-89629999D01*
X66704819Y-89629999D02*
X66704819Y-89725237D01*
X66704819Y-89725237D02*
X66657200Y-89820475D01*
X66657200Y-89820475D02*
X66609580Y-89868094D01*
X66609580Y-89868094D02*
X66514342Y-89915713D01*
X66514342Y-89915713D02*
X66323866Y-89963332D01*
X66323866Y-89963332D02*
X66085771Y-89963332D01*
X66085771Y-89963332D02*
X65895295Y-89915713D01*
X65895295Y-89915713D02*
X65800057Y-89868094D01*
X65800057Y-89868094D02*
X65752438Y-89820475D01*
X65752438Y-89820475D02*
X65704819Y-89725237D01*
X65704819Y-88772856D02*
X65704819Y-88677618D01*
X65704819Y-88677618D02*
X65752438Y-88582380D01*
X65752438Y-88582380D02*
X65800057Y-88534761D01*
X65800057Y-88534761D02*
X65895295Y-88487142D01*
X65895295Y-88487142D02*
X66085771Y-88439523D01*
X66085771Y-88439523D02*
X66323866Y-88439523D01*
X66323866Y-88439523D02*
X66514342Y-88487142D01*
X66514342Y-88487142D02*
X66609580Y-88534761D01*
X66609580Y-88534761D02*
X66657200Y-88582380D01*
X66657200Y-88582380D02*
X66704819Y-88677618D01*
X66704819Y-88677618D02*
X66704819Y-88772856D01*
X66704819Y-88772856D02*
X66657200Y-88868094D01*
X66657200Y-88868094D02*
X66609580Y-88915713D01*
X66609580Y-88915713D02*
X66514342Y-88963332D01*
X66514342Y-88963332D02*
X66323866Y-89010951D01*
X66323866Y-89010951D02*
X66085771Y-89010951D01*
X66085771Y-89010951D02*
X65895295Y-88963332D01*
X65895295Y-88963332D02*
X65800057Y-88915713D01*
X65800057Y-88915713D02*
X65752438Y-88868094D01*
X65752438Y-88868094D02*
X65704819Y-88772856D01*
X66704819Y-87249046D02*
X66038152Y-87249046D01*
X66133390Y-87249046D02*
X66085771Y-87201427D01*
X66085771Y-87201427D02*
X66038152Y-87106189D01*
X66038152Y-87106189D02*
X66038152Y-86963332D01*
X66038152Y-86963332D02*
X66085771Y-86868094D01*
X66085771Y-86868094D02*
X66181009Y-86820475D01*
X66181009Y-86820475D02*
X66704819Y-86820475D01*
X66181009Y-86820475D02*
X66085771Y-86772856D01*
X66085771Y-86772856D02*
X66038152Y-86677618D01*
X66038152Y-86677618D02*
X66038152Y-86534761D01*
X66038152Y-86534761D02*
X66085771Y-86439522D01*
X66085771Y-86439522D02*
X66181009Y-86391903D01*
X66181009Y-86391903D02*
X66704819Y-86391903D01*
X66704819Y-85915713D02*
X66038152Y-85915713D01*
X66133390Y-85915713D02*
X66085771Y-85868094D01*
X66085771Y-85868094D02*
X66038152Y-85772856D01*
X66038152Y-85772856D02*
X66038152Y-85629999D01*
X66038152Y-85629999D02*
X66085771Y-85534761D01*
X66085771Y-85534761D02*
X66181009Y-85487142D01*
X66181009Y-85487142D02*
X66704819Y-85487142D01*
X66181009Y-85487142D02*
X66085771Y-85439523D01*
X66085771Y-85439523D02*
X66038152Y-85344285D01*
X66038152Y-85344285D02*
X66038152Y-85201428D01*
X66038152Y-85201428D02*
X66085771Y-85106189D01*
X66085771Y-85106189D02*
X66181009Y-85058570D01*
X66181009Y-85058570D02*
X66704819Y-85058570D01*
D10*
X97560000Y-119555000D02*
X66813580Y-119555000D01*
X97560000Y-59705000D02*
X66813580Y-59705000D01*
X67400000Y-119555000D02*
X67400000Y-59705000D01*
X67400000Y-119555000D02*
X67400000Y-59705000D01*
X67400000Y-119555000D02*
X66813579Y-118428496D01*
X67400000Y-119555000D02*
X67986421Y-118428496D01*
X67400000Y-59705000D02*
X67986421Y-60831504D01*
X67400000Y-59705000D02*
X66813579Y-60831504D01*
D11*
X126757143Y-34414819D02*
X126566667Y-34414819D01*
X126566667Y-34414819D02*
X126471429Y-34462438D01*
X126471429Y-34462438D02*
X126423810Y-34510057D01*
X126423810Y-34510057D02*
X126328572Y-34652914D01*
X126328572Y-34652914D02*
X126280953Y-34843390D01*
X126280953Y-34843390D02*
X126280953Y-35224342D01*
X126280953Y-35224342D02*
X126328572Y-35319580D01*
X126328572Y-35319580D02*
X126376191Y-35367200D01*
X126376191Y-35367200D02*
X126471429Y-35414819D01*
X126471429Y-35414819D02*
X126661905Y-35414819D01*
X126661905Y-35414819D02*
X126757143Y-35367200D01*
X126757143Y-35367200D02*
X126804762Y-35319580D01*
X126804762Y-35319580D02*
X126852381Y-35224342D01*
X126852381Y-35224342D02*
X126852381Y-34986247D01*
X126852381Y-34986247D02*
X126804762Y-34891009D01*
X126804762Y-34891009D02*
X126757143Y-34843390D01*
X126757143Y-34843390D02*
X126661905Y-34795771D01*
X126661905Y-34795771D02*
X126471429Y-34795771D01*
X126471429Y-34795771D02*
X126376191Y-34843390D01*
X126376191Y-34843390D02*
X126328572Y-34891009D01*
X126328572Y-34891009D02*
X126280953Y-34986247D01*
X127709524Y-34414819D02*
X127519048Y-34414819D01*
X127519048Y-34414819D02*
X127423810Y-34462438D01*
X127423810Y-34462438D02*
X127376191Y-34510057D01*
X127376191Y-34510057D02*
X127280953Y-34652914D01*
X127280953Y-34652914D02*
X127233334Y-34843390D01*
X127233334Y-34843390D02*
X127233334Y-35224342D01*
X127233334Y-35224342D02*
X127280953Y-35319580D01*
X127280953Y-35319580D02*
X127328572Y-35367200D01*
X127328572Y-35367200D02*
X127423810Y-35414819D01*
X127423810Y-35414819D02*
X127614286Y-35414819D01*
X127614286Y-35414819D02*
X127709524Y-35367200D01*
X127709524Y-35367200D02*
X127757143Y-35319580D01*
X127757143Y-35319580D02*
X127804762Y-35224342D01*
X127804762Y-35224342D02*
X127804762Y-34986247D01*
X127804762Y-34986247D02*
X127757143Y-34891009D01*
X127757143Y-34891009D02*
X127709524Y-34843390D01*
X127709524Y-34843390D02*
X127614286Y-34795771D01*
X127614286Y-34795771D02*
X127423810Y-34795771D01*
X127423810Y-34795771D02*
X127328572Y-34843390D01*
X127328572Y-34843390D02*
X127280953Y-34891009D01*
X127280953Y-34891009D02*
X127233334Y-34986247D01*
X128280953Y-35367200D02*
X128280953Y-35414819D01*
X128280953Y-35414819D02*
X128233334Y-35510057D01*
X128233334Y-35510057D02*
X128185715Y-35557676D01*
X129185714Y-34414819D02*
X128709524Y-34414819D01*
X128709524Y-34414819D02*
X128661905Y-34891009D01*
X128661905Y-34891009D02*
X128709524Y-34843390D01*
X128709524Y-34843390D02*
X128804762Y-34795771D01*
X128804762Y-34795771D02*
X129042857Y-34795771D01*
X129042857Y-34795771D02*
X129138095Y-34843390D01*
X129138095Y-34843390D02*
X129185714Y-34891009D01*
X129185714Y-34891009D02*
X129233333Y-34986247D01*
X129233333Y-34986247D02*
X129233333Y-35224342D01*
X129233333Y-35224342D02*
X129185714Y-35319580D01*
X129185714Y-35319580D02*
X129138095Y-35367200D01*
X129138095Y-35367200D02*
X129042857Y-35414819D01*
X129042857Y-35414819D02*
X128804762Y-35414819D01*
X128804762Y-35414819D02*
X128709524Y-35367200D01*
X128709524Y-35367200D02*
X128661905Y-35319580D01*
X129804762Y-34843390D02*
X129709524Y-34795771D01*
X129709524Y-34795771D02*
X129661905Y-34748152D01*
X129661905Y-34748152D02*
X129614286Y-34652914D01*
X129614286Y-34652914D02*
X129614286Y-34605295D01*
X129614286Y-34605295D02*
X129661905Y-34510057D01*
X129661905Y-34510057D02*
X129709524Y-34462438D01*
X129709524Y-34462438D02*
X129804762Y-34414819D01*
X129804762Y-34414819D02*
X129995238Y-34414819D01*
X129995238Y-34414819D02*
X130090476Y-34462438D01*
X130090476Y-34462438D02*
X130138095Y-34510057D01*
X130138095Y-34510057D02*
X130185714Y-34605295D01*
X130185714Y-34605295D02*
X130185714Y-34652914D01*
X130185714Y-34652914D02*
X130138095Y-34748152D01*
X130138095Y-34748152D02*
X130090476Y-34795771D01*
X130090476Y-34795771D02*
X129995238Y-34843390D01*
X129995238Y-34843390D02*
X129804762Y-34843390D01*
X129804762Y-34843390D02*
X129709524Y-34891009D01*
X129709524Y-34891009D02*
X129661905Y-34938628D01*
X129661905Y-34938628D02*
X129614286Y-35033866D01*
X129614286Y-35033866D02*
X129614286Y-35224342D01*
X129614286Y-35224342D02*
X129661905Y-35319580D01*
X129661905Y-35319580D02*
X129709524Y-35367200D01*
X129709524Y-35367200D02*
X129804762Y-35414819D01*
X129804762Y-35414819D02*
X129995238Y-35414819D01*
X129995238Y-35414819D02*
X130090476Y-35367200D01*
X130090476Y-35367200D02*
X130138095Y-35319580D01*
X130138095Y-35319580D02*
X130185714Y-35224342D01*
X130185714Y-35224342D02*
X130185714Y-35033866D01*
X130185714Y-35033866D02*
X130138095Y-34938628D01*
X130138095Y-34938628D02*
X130090476Y-34891009D01*
X130090476Y-34891009D02*
X129995238Y-34843390D01*
X130804762Y-34414819D02*
X130900000Y-34414819D01*
X130900000Y-34414819D02*
X130995238Y-34462438D01*
X130995238Y-34462438D02*
X131042857Y-34510057D01*
X131042857Y-34510057D02*
X131090476Y-34605295D01*
X131090476Y-34605295D02*
X131138095Y-34795771D01*
X131138095Y-34795771D02*
X131138095Y-35033866D01*
X131138095Y-35033866D02*
X131090476Y-35224342D01*
X131090476Y-35224342D02*
X131042857Y-35319580D01*
X131042857Y-35319580D02*
X130995238Y-35367200D01*
X130995238Y-35367200D02*
X130900000Y-35414819D01*
X130900000Y-35414819D02*
X130804762Y-35414819D01*
X130804762Y-35414819D02*
X130709524Y-35367200D01*
X130709524Y-35367200D02*
X130661905Y-35319580D01*
X130661905Y-35319580D02*
X130614286Y-35224342D01*
X130614286Y-35224342D02*
X130566667Y-35033866D01*
X130566667Y-35033866D02*
X130566667Y-34795771D01*
X130566667Y-34795771D02*
X130614286Y-34605295D01*
X130614286Y-34605295D02*
X130661905Y-34510057D01*
X130661905Y-34510057D02*
X130709524Y-34462438D01*
X130709524Y-34462438D02*
X130804762Y-34414819D01*
X131757143Y-34414819D02*
X131852381Y-34414819D01*
X131852381Y-34414819D02*
X131947619Y-34462438D01*
X131947619Y-34462438D02*
X131995238Y-34510057D01*
X131995238Y-34510057D02*
X132042857Y-34605295D01*
X132042857Y-34605295D02*
X132090476Y-34795771D01*
X132090476Y-34795771D02*
X132090476Y-35033866D01*
X132090476Y-35033866D02*
X132042857Y-35224342D01*
X132042857Y-35224342D02*
X131995238Y-35319580D01*
X131995238Y-35319580D02*
X131947619Y-35367200D01*
X131947619Y-35367200D02*
X131852381Y-35414819D01*
X131852381Y-35414819D02*
X131757143Y-35414819D01*
X131757143Y-35414819D02*
X131661905Y-35367200D01*
X131661905Y-35367200D02*
X131614286Y-35319580D01*
X131614286Y-35319580D02*
X131566667Y-35224342D01*
X131566667Y-35224342D02*
X131519048Y-35033866D01*
X131519048Y-35033866D02*
X131519048Y-34795771D01*
X131519048Y-34795771D02*
X131566667Y-34605295D01*
X131566667Y-34605295D02*
X131614286Y-34510057D01*
X131614286Y-34510057D02*
X131661905Y-34462438D01*
X131661905Y-34462438D02*
X131757143Y-34414819D01*
X133280953Y-35414819D02*
X133280953Y-34748152D01*
X133280953Y-34843390D02*
X133328572Y-34795771D01*
X133328572Y-34795771D02*
X133423810Y-34748152D01*
X133423810Y-34748152D02*
X133566667Y-34748152D01*
X133566667Y-34748152D02*
X133661905Y-34795771D01*
X133661905Y-34795771D02*
X133709524Y-34891009D01*
X133709524Y-34891009D02*
X133709524Y-35414819D01*
X133709524Y-34891009D02*
X133757143Y-34795771D01*
X133757143Y-34795771D02*
X133852381Y-34748152D01*
X133852381Y-34748152D02*
X133995238Y-34748152D01*
X133995238Y-34748152D02*
X134090477Y-34795771D01*
X134090477Y-34795771D02*
X134138096Y-34891009D01*
X134138096Y-34891009D02*
X134138096Y-35414819D01*
X134614286Y-35414819D02*
X134614286Y-34748152D01*
X134614286Y-34843390D02*
X134661905Y-34795771D01*
X134661905Y-34795771D02*
X134757143Y-34748152D01*
X134757143Y-34748152D02*
X134900000Y-34748152D01*
X134900000Y-34748152D02*
X134995238Y-34795771D01*
X134995238Y-34795771D02*
X135042857Y-34891009D01*
X135042857Y-34891009D02*
X135042857Y-35414819D01*
X135042857Y-34891009D02*
X135090476Y-34795771D01*
X135090476Y-34795771D02*
X135185714Y-34748152D01*
X135185714Y-34748152D02*
X135328571Y-34748152D01*
X135328571Y-34748152D02*
X135423810Y-34795771D01*
X135423810Y-34795771D02*
X135471429Y-34891009D01*
X135471429Y-34891009D02*
X135471429Y-35414819D01*
D10*
X97680000Y-56480000D02*
X97680000Y-47173580D01*
X164260000Y-56480000D02*
X164260000Y-47173580D01*
X97680000Y-47760000D02*
X164260000Y-47760000D01*
X97680000Y-47760000D02*
X164260000Y-47760000D01*
X97680000Y-47760000D02*
X98806504Y-47173579D01*
X97680000Y-47760000D02*
X98806504Y-48346421D01*
X164260000Y-47760000D02*
X163133496Y-48346421D01*
X164260000Y-47760000D02*
X163133496Y-47173579D01*
M02*
