%TF.GenerationSoftware,KiCad,Pcbnew,8.0.2*%
%TF.CreationDate,2024-05-29T12:03:12+02:00*%
%TF.ProjectId,IOT_ESP32,494f545f-4553-4503-9332-2e6b69636164,rev?*%
%TF.SameCoordinates,Original*%
%TF.FileFunction,Copper,L1,Top*%
%TF.FilePolarity,Positive*%
%FSLAX46Y46*%
G04 Gerber Fmt 4.6, Leading zero omitted, Abs format (unit mm)*
G04 Created by KiCad (PCBNEW 8.0.2) date 2024-05-29 12:03:12*
%MOMM*%
%LPD*%
G01*
G04 APERTURE LIST*
G04 Aperture macros list*
%AMRoundRect*
0 Rectangle with rounded corners*
0 $1 Rounding radius*
0 $2 $3 $4 $5 $6 $7 $8 $9 X,Y pos of 4 corners*
0 Add a 4 corners polygon primitive as box body*
4,1,4,$2,$3,$4,$5,$6,$7,$8,$9,$2,$3,0*
0 Add four circle primitives for the rounded corners*
1,1,$1+$1,$2,$3*
1,1,$1+$1,$4,$5*
1,1,$1+$1,$6,$7*
1,1,$1+$1,$8,$9*
0 Add four rect primitives between the rounded corners*
20,1,$1+$1,$2,$3,$4,$5,0*
20,1,$1+$1,$4,$5,$6,$7,0*
20,1,$1+$1,$6,$7,$8,$9,0*
20,1,$1+$1,$8,$9,$2,$3,0*%
G04 Aperture macros list end*
%TA.AperFunction,SMDPad,CuDef*%
%ADD10RoundRect,0.250000X0.337500X0.475000X-0.337500X0.475000X-0.337500X-0.475000X0.337500X-0.475000X0*%
%TD*%
%TA.AperFunction,SMDPad,CuDef*%
%ADD11R,1.700000X1.000000*%
%TD*%
%TA.AperFunction,SMDPad,CuDef*%
%ADD12R,1.700000X0.600000*%
%TD*%
%TA.AperFunction,SMDPad,CuDef*%
%ADD13RoundRect,0.250000X-0.475000X0.337500X-0.475000X-0.337500X0.475000X-0.337500X0.475000X0.337500X0*%
%TD*%
%TA.AperFunction,SMDPad,CuDef*%
%ADD14R,2.000000X1.780000*%
%TD*%
%TA.AperFunction,SMDPad,CuDef*%
%ADD15RoundRect,0.250000X-0.350000X-0.450000X0.350000X-0.450000X0.350000X0.450000X-0.350000X0.450000X0*%
%TD*%
%TA.AperFunction,SMDPad,CuDef*%
%ADD16R,1.500000X0.900000*%
%TD*%
%TA.AperFunction,SMDPad,CuDef*%
%ADD17R,0.900000X1.500000*%
%TD*%
%TA.AperFunction,SMDPad,CuDef*%
%ADD18R,1.050000X1.050000*%
%TD*%
%TA.AperFunction,HeatsinkPad*%
%ADD19C,0.600000*%
%TD*%
%TA.AperFunction,SMDPad,CuDef*%
%ADD20R,4.200000X4.200000*%
%TD*%
%TA.AperFunction,SMDPad,CuDef*%
%ADD21RoundRect,0.250000X0.450000X-0.325000X0.450000X0.325000X-0.450000X0.325000X-0.450000X-0.325000X0*%
%TD*%
%TA.AperFunction,SMDPad,CuDef*%
%ADD22RoundRect,0.250000X-0.450000X0.325000X-0.450000X-0.325000X0.450000X-0.325000X0.450000X0.325000X0*%
%TD*%
%TA.AperFunction,SMDPad,CuDef*%
%ADD23R,0.600000X2.450000*%
%TD*%
%TA.AperFunction,SMDPad,CuDef*%
%ADD24R,0.300000X2.450000*%
%TD*%
%TA.AperFunction,ComponentPad*%
%ADD25O,1.000000X2.100000*%
%TD*%
%TA.AperFunction,ComponentPad*%
%ADD26O,1.000000X1.600000*%
%TD*%
%TA.AperFunction,SMDPad,CuDef*%
%ADD27RoundRect,0.250000X0.450000X-0.350000X0.450000X0.350000X-0.450000X0.350000X-0.450000X-0.350000X0*%
%TD*%
%TA.AperFunction,SMDPad,CuDef*%
%ADD28RoundRect,0.250000X0.475000X-0.337500X0.475000X0.337500X-0.475000X0.337500X-0.475000X-0.337500X0*%
%TD*%
%TA.AperFunction,SMDPad,CuDef*%
%ADD29RoundRect,0.250000X-0.450000X0.350000X-0.450000X-0.350000X0.450000X-0.350000X0.450000X0.350000X0*%
%TD*%
%TA.AperFunction,SMDPad,CuDef*%
%ADD30RoundRect,0.150000X0.825000X0.150000X-0.825000X0.150000X-0.825000X-0.150000X0.825000X-0.150000X0*%
%TD*%
%TA.AperFunction,SMDPad,CuDef*%
%ADD31RoundRect,0.250000X0.350000X0.450000X-0.350000X0.450000X-0.350000X-0.450000X0.350000X-0.450000X0*%
%TD*%
%TA.AperFunction,SMDPad,CuDef*%
%ADD32R,1.500000X0.400000*%
%TD*%
%TA.AperFunction,SMDPad,CuDef*%
%ADD33RoundRect,0.250001X0.624999X-0.462499X0.624999X0.462499X-0.624999X0.462499X-0.624999X-0.462499X0*%
%TD*%
%TA.AperFunction,ComponentPad*%
%ADD34R,2.200000X2.200000*%
%TD*%
%TA.AperFunction,ComponentPad*%
%ADD35O,2.200000X2.200000*%
%TD*%
%TA.AperFunction,ComponentPad*%
%ADD36RoundRect,0.250000X0.725000X-0.600000X0.725000X0.600000X-0.725000X0.600000X-0.725000X-0.600000X0*%
%TD*%
%TA.AperFunction,ComponentPad*%
%ADD37O,1.950000X1.700000*%
%TD*%
%TA.AperFunction,SMDPad,CuDef*%
%ADD38R,2.000000X1.500000*%
%TD*%
%TA.AperFunction,SMDPad,CuDef*%
%ADD39R,2.000000X3.800000*%
%TD*%
%TA.AperFunction,SMDPad,CuDef*%
%ADD40R,2.000000X0.650000*%
%TD*%
%TA.AperFunction,SMDPad,CuDef*%
%ADD41R,3.000000X1.400000*%
%TD*%
%TA.AperFunction,SMDPad,CuDef*%
%ADD42R,1.000000X1.050000*%
%TD*%
%TA.AperFunction,SMDPad,CuDef*%
%ADD43R,1.050000X2.200000*%
%TD*%
%TA.AperFunction,SMDPad,CuDef*%
%ADD44R,1.800000X1.100000*%
%TD*%
%TA.AperFunction,ComponentPad*%
%ADD45R,1.700000X1.700000*%
%TD*%
%TA.AperFunction,ComponentPad*%
%ADD46O,1.700000X1.700000*%
%TD*%
%TA.AperFunction,SMDPad,CuDef*%
%ADD47RoundRect,0.250000X-0.337500X-0.475000X0.337500X-0.475000X0.337500X0.475000X-0.337500X0.475000X0*%
%TD*%
%TA.AperFunction,ComponentPad*%
%ADD48R,2.600000X2.600000*%
%TD*%
%TA.AperFunction,ComponentPad*%
%ADD49C,2.600000*%
%TD*%
%TA.AperFunction,ComponentPad*%
%ADD50R,1.980000X1.980000*%
%TD*%
%TA.AperFunction,ComponentPad*%
%ADD51C,1.980000*%
%TD*%
%TA.AperFunction,ComponentPad*%
%ADD52C,1.935000*%
%TD*%
G04 APERTURE END LIST*
D10*
%TO.P,C11,1*%
%TO.N,+3.3V*%
X-25472500Y-56200000D03*
%TO.P,C11,2*%
%TO.N,GND*%
X-27547500Y-56200000D03*
%TD*%
%TO.P,C6,1*%
%TO.N,+3.3V*%
X143307500Y-109230000D03*
%TO.P,C6,2*%
%TO.N,GND*%
X141232500Y-109230000D03*
%TD*%
%TO.P,C7,1*%
%TO.N,+3.3V*%
X143247500Y-105500000D03*
%TO.P,C7,2*%
%TO.N,GND*%
X141172500Y-105500000D03*
%TD*%
D11*
%TO.P,U1,1,GND*%
%TO.N,GND*%
X112260000Y-105620000D03*
D12*
%TO.P,U1,2,IO1*%
%TO.N,/DP*%
X112260000Y-103920000D03*
%TO.P,U1,3,IO2*%
%TO.N,/DN*%
X109260000Y-103920000D03*
%TO.P,U1,4,VCC*%
%TO.N,VBUS*%
X109260000Y-105820000D03*
%TD*%
D13*
%TO.P,C5,1*%
%TO.N,/RESET*%
X142510000Y-115502500D03*
%TO.P,C5,2*%
%TO.N,GND*%
X142510000Y-117577500D03*
%TD*%
D14*
%TO.P,U4,1*%
%TO.N,Net-(R8-Pad1)*%
X115640000Y-63810000D03*
%TO.P,U4,2*%
%TO.N,Net-(D1-A)*%
X115640000Y-66350000D03*
%TO.P,U4,3*%
%TO.N,Net-(R10-Pad1)*%
X123260000Y-66350000D03*
%TO.P,U4,4*%
%TO.N,+5V*%
X123260000Y-63810000D03*
%TD*%
D15*
%TO.P,R3,1*%
%TO.N,/RTS*%
X-50780000Y-62670000D03*
%TO.P,R3,2*%
%TO.N,Net-(Q1-B1)*%
X-48780000Y-62670000D03*
%TD*%
%TO.P,R10,1*%
%TO.N,Net-(R10-Pad1)*%
X129180000Y-61390000D03*
%TO.P,R10,2*%
%TO.N,Net-(Q2-B)*%
X131180000Y-61390000D03*
%TD*%
D16*
%TO.P,U3,1,GND*%
%TO.N,GND*%
X137145000Y-118055000D03*
%TO.P,U3,2,VDD*%
%TO.N,+3.3V*%
X137145000Y-116785000D03*
%TO.P,U3,3,EN*%
%TO.N,/RESET*%
X137145000Y-115515000D03*
%TO.P,U3,4,SENSOR_VP*%
%TO.N,unconnected-(U3-SENSOR_VP-Pad4)*%
X137145000Y-114245000D03*
%TO.P,U3,5,SENSOR_VN*%
%TO.N,unconnected-(U3-SENSOR_VN-Pad5)*%
X137145000Y-112975000D03*
%TO.P,U3,6,IO34*%
%TO.N,/GPIO34*%
X137145000Y-111705000D03*
%TO.P,U3,7,IO35*%
%TO.N,/GPIO35*%
X137145000Y-110435000D03*
%TO.P,U3,8,IO32*%
%TO.N,/RFM_DIO2{slash}32*%
X137145000Y-109165000D03*
%TO.P,U3,9,IO33*%
%TO.N,/RFM_DIO1{slash}33*%
X137145000Y-107895000D03*
%TO.P,U3,10,IO25*%
%TO.N,/GPIO25*%
X137145000Y-106625000D03*
%TO.P,U3,11,IO26*%
%TO.N,/RFM_INT{slash}26*%
X137145000Y-105355000D03*
%TO.P,U3,12,IO27*%
%TO.N,/GPIO27*%
X137145000Y-104085000D03*
%TO.P,U3,13,IO14*%
%TO.N,/SCK*%
X137145000Y-102815000D03*
%TO.P,U3,14,IO12*%
%TO.N,/MISO*%
X137145000Y-101545000D03*
D17*
%TO.P,U3,15,GND*%
%TO.N,GND*%
X134105000Y-100295000D03*
%TO.P,U3,16,IO13*%
%TO.N,/MOSI*%
X132835000Y-100295000D03*
%TO.P,U3,17,SHD/SD2*%
%TO.N,unconnected-(U3-SHD{slash}SD2-Pad17)*%
X131565000Y-100295000D03*
%TO.P,U3,18,SWP/SD3*%
%TO.N,unconnected-(U3-SWP{slash}SD3-Pad18)*%
X130295000Y-100295000D03*
%TO.P,U3,19,SCS/CMD*%
%TO.N,unconnected-(U3-SCS{slash}CMD-Pad19)*%
X129025000Y-100295000D03*
%TO.P,U3,20,SCK/CLK*%
%TO.N,unconnected-(U3-SCK{slash}CLK-Pad20)*%
X127755000Y-100295000D03*
%TO.P,U3,21,SDO/SD0*%
%TO.N,unconnected-(U3-SDO{slash}SD0-Pad21)*%
X126485000Y-100295000D03*
%TO.P,U3,22,SDI/SD1*%
%TO.N,unconnected-(U3-SDI{slash}SD1-Pad22)*%
X125215000Y-100295000D03*
%TO.P,U3,23,IO15*%
%TO.N,unconnected-(U3-IO15-Pad23)*%
X123945000Y-100295000D03*
%TO.P,U3,24,IO2*%
%TO.N,unconnected-(U3-IO2-Pad24)*%
X122675000Y-100295000D03*
D16*
%TO.P,U3,25,IO0*%
%TO.N,/IO_0 *%
X119645000Y-101545000D03*
%TO.P,U3,26,IO4*%
%TO.N,unconnected-(U3-IO4-Pad26)*%
X119645000Y-102815000D03*
%TO.P,U3,27,IO16*%
%TO.N,/RFM_CS*%
X119645000Y-104085000D03*
%TO.P,U3,28,IO17*%
%TO.N,unconnected-(U3-IO17-Pad28)*%
X119645000Y-105355000D03*
%TO.P,U3,29,IO5*%
%TO.N,unconnected-(U3-IO5-Pad29)*%
X119645000Y-106625000D03*
%TO.P,U3,30,IO18*%
%TO.N,unconnected-(U3-IO18-Pad30)*%
X119645000Y-107895000D03*
%TO.P,U3,31,IO19*%
%TO.N,unconnected-(U3-IO19-Pad31)*%
X119645000Y-109165000D03*
%TO.P,U3,32,NC*%
%TO.N,unconnected-(U3-NC-Pad32)*%
X119645000Y-110435000D03*
%TO.P,U3,33,IO21*%
%TO.N,/SCL*%
X119645000Y-111705000D03*
%TO.P,U3,34,RXD0/IO3*%
%TO.N,/TX*%
X119645000Y-112975000D03*
%TO.P,U3,35,TXD0/IO1*%
%TO.N,/RX*%
X119645000Y-114245000D03*
%TO.P,U3,36,IO22*%
%TO.N,/SDA*%
X119645000Y-115515000D03*
%TO.P,U3,37,IO23*%
%TO.N,unconnected-(U3-IO23-Pad37)*%
X119645000Y-116785000D03*
%TO.P,U3,38,GND*%
%TO.N,GND*%
X119645000Y-118055000D03*
D18*
%TO.P,U3,39,GND*%
X130600000Y-112240000D03*
D19*
X130600000Y-111477500D03*
D18*
X130600000Y-110715000D03*
D19*
X130600000Y-109952500D03*
D18*
X130600000Y-109190000D03*
D19*
X129837500Y-112240000D03*
X129837500Y-110715000D03*
X129837500Y-109190000D03*
D18*
X129075000Y-112240000D03*
D19*
X129075000Y-111477500D03*
D18*
X129075000Y-110715000D03*
D20*
X129075000Y-110715000D03*
D19*
X129075000Y-109952500D03*
D18*
X129075000Y-109190000D03*
D19*
X128312500Y-112240000D03*
X128312500Y-110715000D03*
X128312500Y-109190000D03*
D18*
X127550000Y-112240000D03*
D19*
X127550000Y-111477500D03*
D18*
X127550000Y-110715000D03*
D19*
X127550000Y-109952500D03*
D18*
X127550000Y-109190000D03*
%TD*%
D21*
%TO.P,D4,1,K*%
%TO.N,GND*%
X126020000Y-80730000D03*
%TO.P,D4,2,A*%
%TO.N,Net-(D4-A)*%
X126020000Y-78680000D03*
%TD*%
D22*
%TO.P,D2,1,K*%
%TO.N,GND*%
X107960000Y-75780000D03*
%TO.P,D2,2,A*%
%TO.N,Net-(D2-A)*%
X107960000Y-77830000D03*
%TD*%
D23*
%TO.P,USB1,1,GND*%
%TO.N,GND*%
X106095000Y-111080000D03*
%TO.P,USB1,2,VBUS*%
%TO.N,VBUS*%
X106870000Y-111080000D03*
D24*
%TO.P,USB1,3,SBU2*%
%TO.N,unconnected-(USB1-SBU2-Pad3)*%
X107570000Y-111080000D03*
%TO.P,USB1,4,CC1*%
%TO.N,Net-(USB1-CC1)*%
X108070000Y-111080000D03*
%TO.P,USB1,5,DN2*%
%TO.N,/DN*%
X108570000Y-111080000D03*
%TO.P,USB1,6,DP1*%
%TO.N,/DP*%
X109070000Y-111080000D03*
%TO.P,USB1,7,DN1*%
%TO.N,/DN*%
X109570000Y-111080000D03*
%TO.P,USB1,8,DP2*%
%TO.N,/DP*%
X110070000Y-111080000D03*
%TO.P,USB1,9,SBU1*%
%TO.N,unconnected-(USB1-SBU1-Pad9)*%
X110570000Y-111080000D03*
%TO.P,USB1,10,CC2*%
%TO.N,Net-(USB1-CC2)*%
X111070000Y-111080000D03*
D23*
%TO.P,USB1,11,VBUS*%
%TO.N,VBUS*%
X111770000Y-111080000D03*
%TO.P,USB1,12,GND*%
%TO.N,GND*%
X112545000Y-111080000D03*
D25*
%TO.P,USB1,13,SHIELD*%
X105000000Y-112495000D03*
D26*
X105000000Y-116675000D03*
D25*
X113640000Y-112495000D03*
D26*
X113640000Y-116675000D03*
%TD*%
D27*
%TO.P,R4,1*%
%TO.N,/DP*%
X112270000Y-102220000D03*
%TO.P,R4,2*%
%TO.N,/D+*%
X112270000Y-100220000D03*
%TD*%
D13*
%TO.P,C3,1*%
%TO.N,GND*%
X153910000Y-114692500D03*
%TO.P,C3,2*%
%TO.N,/RESET*%
X153910000Y-116767500D03*
%TD*%
D21*
%TO.P,D1,1,K*%
%TO.N,/GPIO34*%
X112770000Y-68335000D03*
%TO.P,D1,2,A*%
%TO.N,Net-(D1-A)*%
X112770000Y-66285000D03*
%TD*%
D28*
%TO.P,C9,1*%
%TO.N,+5V*%
X110960000Y-75617500D03*
%TO.P,C9,2*%
%TO.N,GND*%
X110960000Y-73542500D03*
%TD*%
D29*
%TO.P,R7,1*%
%TO.N,+3.3V*%
X151130000Y-100620000D03*
%TO.P,R7,2*%
%TO.N,/RESET*%
X151130000Y-102620000D03*
%TD*%
D10*
%TO.P,C1,1*%
%TO.N,+3.3V*%
X143257500Y-102030000D03*
%TO.P,C1,2*%
%TO.N,GND*%
X141182500Y-102030000D03*
%TD*%
D30*
%TO.P,U2,1,GND*%
%TO.N,GND*%
X111875000Y-98265000D03*
%TO.P,U2,2,TXD*%
%TO.N,/TX*%
X111875000Y-96995000D03*
%TO.P,U2,3,RXD*%
%TO.N,/RX*%
X111875000Y-95725000D03*
%TO.P,U2,4,V3*%
%TO.N,+3.3V*%
X111875000Y-94455000D03*
%TO.P,U2,5,UD+*%
%TO.N,/D+*%
X111875000Y-93185000D03*
%TO.P,U2,6,UD-*%
%TO.N,/D-*%
X111875000Y-91915000D03*
%TO.P,U2,7,NC*%
%TO.N,unconnected-(U2-NC-Pad7)*%
X111875000Y-90645000D03*
%TO.P,U2,8,NC*%
%TO.N,unconnected-(U2-NC-Pad8)*%
X111875000Y-89375000D03*
%TO.P,U2,9,~{CTS}*%
%TO.N,unconnected-(U2-~{CTS}-Pad9)*%
X106925000Y-89375000D03*
%TO.P,U2,10,~{DSR}*%
%TO.N,unconnected-(U2-~{DSR}-Pad10)*%
X106925000Y-90645000D03*
%TO.P,U2,11,~{RI}*%
%TO.N,unconnected-(U2-~{RI}-Pad11)*%
X106925000Y-91915000D03*
%TO.P,U2,12,~{DCD}*%
%TO.N,unconnected-(U2-~{DCD}-Pad12)*%
X106925000Y-93185000D03*
%TO.P,U2,13,~{DTR}*%
%TO.N,/DTR*%
X106925000Y-94455000D03*
%TO.P,U2,14,~{RTS}*%
%TO.N,/RTS*%
X106925000Y-95725000D03*
%TO.P,U2,15,R232*%
%TO.N,unconnected-(U2-R232-Pad15)*%
X106925000Y-96995000D03*
%TO.P,U2,16,VCC*%
%TO.N,+5V*%
X106925000Y-98265000D03*
%TD*%
D31*
%TO.P,R12,1*%
%TO.N,+3.3V*%
X-25490000Y-52680000D03*
%TO.P,R12,2*%
%TO.N,Net-(U7-RESET)*%
X-27490000Y-52680000D03*
%TD*%
D32*
%TO.P,Q1,1,E1*%
%TO.N,Net-(Q1-B2)*%
X147860000Y-110870000D03*
%TO.P,Q1,2,B1*%
%TO.N,Net-(Q1-B1)*%
X147860000Y-111520000D03*
%TO.P,Q1,3,C2*%
%TO.N,/RESET*%
X147860000Y-112170000D03*
%TO.P,Q1,4,E2*%
%TO.N,Net-(Q1-B1)*%
X150520000Y-112170000D03*
%TO.P,Q1,5,B2*%
%TO.N,Net-(Q1-B2)*%
X150520000Y-111520000D03*
%TO.P,Q1,6,C1*%
%TO.N,/IO_0 *%
X150520000Y-110870000D03*
%TD*%
D33*
%TO.P,F1,1*%
%TO.N,VBUS*%
X106940000Y-105817500D03*
%TO.P,F1,2*%
%TO.N,+5V*%
X106940000Y-102842500D03*
%TD*%
D34*
%TO.P,D3,1,K*%
%TO.N,+5V*%
X131260000Y-82150000D03*
D35*
%TO.P,D3,2,A*%
%TO.N,Net-(D3-A)*%
X131260000Y-69450000D03*
%TD*%
D36*
%TO.P,J3,1,Pin_1*%
%TO.N,GND*%
X118775000Y-92490000D03*
D37*
%TO.P,J3,2,Pin_2*%
%TO.N,+3.3V*%
X118775000Y-89990000D03*
%TO.P,J3,3,Pin_3*%
%TO.N,/SDA*%
X118775000Y-87490000D03*
%TO.P,J3,4,Pin_4*%
%TO.N,/SCL*%
X118775000Y-84990000D03*
%TD*%
D38*
%TO.P,U5,1,GND*%
%TO.N,GND*%
X114130000Y-72420000D03*
%TO.P,U5,2,VO*%
%TO.N,+3.3V*%
X114130000Y-74720000D03*
D39*
X120430000Y-74720000D03*
D38*
%TO.P,U5,3,VI*%
%TO.N,+5V*%
X114130000Y-77020000D03*
%TD*%
D13*
%TO.P,C12,1*%
%TO.N,+3.3V*%
X154880000Y-100582500D03*
%TO.P,C12,2*%
%TO.N,GND*%
X154880000Y-102657500D03*
%TD*%
D27*
%TO.P,R5,1*%
%TO.N,/DN*%
X109240000Y-102240000D03*
%TO.P,R5,2*%
%TO.N,/D-*%
X109240000Y-100240000D03*
%TD*%
D10*
%TO.P,C10,1*%
%TO.N,+3.3V*%
X119250000Y-69610000D03*
%TO.P,C10,2*%
%TO.N,GND*%
X117175000Y-69610000D03*
%TD*%
D40*
%TO.P,Q2,1,C*%
%TO.N,Net-(D3-A)*%
X131180000Y-65700000D03*
%TO.P,Q2,2,B*%
%TO.N,Net-(Q2-B)*%
X131180000Y-63800000D03*
%TO.P,Q2,3,E*%
%TO.N,GND*%
X127760000Y-64750000D03*
%TD*%
D41*
%TO.P,U7,1,GND*%
%TO.N,GND*%
X145070000Y-82680000D03*
%TO.P,U7,2,MISO*%
%TO.N,/MISO*%
X145070000Y-84680000D03*
%TO.P,U7,3,MOSI*%
%TO.N,/MOSI*%
X145070000Y-86680000D03*
%TO.P,U7,4,SCK*%
%TO.N,/SCK*%
X145070000Y-88680000D03*
%TO.P,U7,5,NSS*%
%TO.N,/RFM_CS*%
X145070000Y-90680000D03*
%TO.P,U7,6,RESET*%
%TO.N,Net-(U7-RESET)*%
X145070000Y-92680000D03*
%TO.P,U7,7,DIO5*%
%TO.N,unconnected-(U7-DIO5-Pad7)*%
X145070000Y-94680000D03*
%TO.P,U7,8,GND*%
%TO.N,GND*%
X145070000Y-96680000D03*
%TO.P,U7,9,ANT*%
%TO.N,ANT*%
X160470000Y-96680000D03*
%TO.P,U7,10,GND*%
%TO.N,GND*%
X160470000Y-94680000D03*
%TO.P,U7,11,DIO3*%
%TO.N,unconnected-(U7-DIO3-Pad11)*%
X160470000Y-92680000D03*
%TO.P,U7,12,DIO4*%
%TO.N,unconnected-(U7-DIO4-Pad12)*%
X160470000Y-90680000D03*
%TO.P,U7,13,3.3V*%
%TO.N,+3.3V*%
X160470000Y-88680000D03*
%TO.P,U7,14,DIO0*%
%TO.N,/RFM_INT{slash}26*%
X160470000Y-86680000D03*
%TO.P,U7,15,DIO1*%
%TO.N,/RFM_DIO1{slash}33*%
X160470000Y-84680000D03*
%TO.P,U7,16,DIO2*%
%TO.N,/RFM_DIO2{slash}32*%
X160470000Y-82680000D03*
%TD*%
D31*
%TO.P,R2,1*%
%TO.N,Net-(USB1-CC1)*%
X108060000Y-108350000D03*
%TO.P,R2,2*%
%TO.N,GND*%
X106060000Y-108350000D03*
%TD*%
D42*
%TO.P,J6,1*%
%TO.N,ANT*%
X160060000Y-99790000D03*
D43*
%TO.P,J6,2*%
%TO.N,GND*%
X161535000Y-101315000D03*
%TO.P,J6,3*%
X158585000Y-101315000D03*
%TD*%
D44*
%TO.P,SW2,1*%
%TO.N,/IO_0*%
X163220000Y-109580000D03*
X157020000Y-109580000D03*
%TO.P,SW2,2*%
%TO.N,GND*%
X163220000Y-105880000D03*
X157020000Y-105880000D03*
%TD*%
D13*
%TO.P,C4,1*%
%TO.N,GND*%
X153880000Y-106512500D03*
%TO.P,C4,2*%
%TO.N,/IO_0*%
X153880000Y-108587500D03*
%TD*%
D29*
%TO.P,R9,1*%
%TO.N,+5V*%
X110930000Y-78400000D03*
%TO.P,R9,2*%
%TO.N,Net-(D2-A)*%
X110930000Y-80400000D03*
%TD*%
D15*
%TO.P,R1,1*%
%TO.N,Net-(USB1-CC2)*%
X111070000Y-108340000D03*
%TO.P,R1,2*%
%TO.N,GND*%
X113070000Y-108340000D03*
%TD*%
D45*
%TO.P,J1,1,Pin_1*%
%TO.N,+3.3V*%
X131270000Y-94785000D03*
D46*
%TO.P,J1,2,Pin_2*%
%TO.N,/GPIO25*%
X131270000Y-92245000D03*
%TO.P,J1,3,Pin_3*%
%TO.N,/GPIO27*%
X133810000Y-94785000D03*
%TO.P,J1,4,Pin_4*%
%TO.N,GND*%
X133810000Y-92245000D03*
%TO.P,J1,5,Pin_5*%
%TO.N,+3.3V*%
X136350000Y-94785000D03*
%TO.P,J1,6,Pin_6*%
%TO.N,/GPIO34*%
X136350000Y-92245000D03*
%TO.P,J1,7,Pin_7*%
%TO.N,/GPIO35*%
X138890000Y-94785000D03*
%TO.P,J1,8,Pin_8*%
%TO.N,GND*%
X138890000Y-92245000D03*
%TD*%
D47*
%TO.P,C2,1*%
%TO.N,GND*%
X102682500Y-98260000D03*
%TO.P,C2,2*%
%TO.N,+5V*%
X104757500Y-98260000D03*
%TD*%
D15*
%TO.P,R8,1*%
%TO.N,Net-(R8-Pad1)*%
X125000000Y-70840000D03*
%TO.P,R8,2*%
%TO.N,+5V*%
X127000000Y-70840000D03*
%TD*%
D44*
%TO.P,SW1,1*%
%TO.N,/RESET*%
X163200000Y-118030000D03*
X157000000Y-118030000D03*
%TO.P,SW1,2*%
%TO.N,GND*%
X163200000Y-114330000D03*
X157000000Y-114330000D03*
%TD*%
D15*
%TO.P,R6,1*%
%TO.N,Net-(Q1-B2)*%
X-50780000Y-71520000D03*
%TO.P,R6,2*%
%TO.N,/DTR*%
X-48780000Y-71520000D03*
%TD*%
D48*
%TO.P,J2,1,Pin_1*%
%TO.N,GND*%
X106140000Y-65510000D03*
D49*
%TO.P,J2,2,Pin_2*%
%TO.N,+5V*%
X101140000Y-65510000D03*
%TD*%
D50*
%TO.P,K1,A1*%
%TO.N,+5V*%
X137587500Y-73780000D03*
D51*
%TO.P,K1,A2*%
%TO.N,Net-(D3-A)*%
X137587500Y-61780000D03*
D52*
%TO.P,K1,COM*%
%TO.N,Net-(J4-Pin_2)*%
X135587500Y-67780000D03*
D51*
%TO.P,K1,NC*%
%TO.N,Net-(J4-Pin_3)*%
X149787500Y-73780000D03*
%TO.P,K1,NO*%
%TO.N,Net-(J4-Pin_1)*%
X149787500Y-61780000D03*
%TD*%
D48*
%TO.P,J4,1,Pin_1*%
%TO.N,Net-(J4-Pin_1)*%
X159420000Y-62790000D03*
D49*
%TO.P,J4,2,Pin_2*%
%TO.N,Net-(J4-Pin_2)*%
X159420000Y-67790000D03*
%TO.P,J4,3,Pin_3*%
%TO.N,Net-(J4-Pin_3)*%
X159420000Y-72790000D03*
%TD*%
M02*
