%TF.GenerationSoftware,KiCad,Pcbnew,8.0.2*%
%TF.CreationDate,2024-05-29T12:03:12+02:00*%
%TF.ProjectId,IOT_ESP32,494f545f-4553-4503-9332-2e6b69636164,rev?*%
%TF.SameCoordinates,Original*%
%TF.FileFunction,Legend,Bot*%
%TF.FilePolarity,Positive*%
%FSLAX46Y46*%
G04 Gerber Fmt 4.6, Leading zero omitted, Abs format (unit mm)*
G04 Created by KiCad (PCBNEW 8.0.2) date 2024-05-29 12:03:12*
%MOMM*%
%LPD*%
G01*
G04 APERTURE LIST*
G04 Aperture macros list*
%AMRoundRect*
0 Rectangle with rounded corners*
0 $1 Rounding radius*
0 $2 $3 $4 $5 $6 $7 $8 $9 X,Y pos of 4 corners*
0 Add a 4 corners polygon primitive as box body*
4,1,4,$2,$3,$4,$5,$6,$7,$8,$9,$2,$3,0*
0 Add four circle primitives for the rounded corners*
1,1,$1+$1,$2,$3*
1,1,$1+$1,$4,$5*
1,1,$1+$1,$6,$7*
1,1,$1+$1,$8,$9*
0 Add four rect primitives between the rounded corners*
20,1,$1+$1,$2,$3,$4,$5,0*
20,1,$1+$1,$4,$5,$6,$7,0*
20,1,$1+$1,$6,$7,$8,$9,0*
20,1,$1+$1,$8,$9,$2,$3,0*%
G04 Aperture macros list end*
%ADD10C,0.150000*%
%ADD11C,0.120000*%
%ADD12C,0.127000*%
%ADD13C,0.300000*%
%ADD14C,0.650000*%
%ADD15O,1.000000X2.100000*%
%ADD16O,1.000000X1.600000*%
%ADD17R,2.200000X2.200000*%
%ADD18O,2.200000X2.200000*%
%ADD19RoundRect,0.250000X0.725000X-0.600000X0.725000X0.600000X-0.725000X0.600000X-0.725000X-0.600000X0*%
%ADD20O,1.950000X1.700000*%
%ADD21R,1.700000X1.700000*%
%ADD22O,1.700000X1.700000*%
%ADD23RoundRect,0.250000X0.475000X-0.337500X0.475000X0.337500X-0.475000X0.337500X-0.475000X-0.337500X0*%
%ADD24R,2.600000X2.600000*%
%ADD25C,2.600000*%
%ADD26R,1.980000X1.980000*%
%ADD27C,1.980000*%
%ADD28C,1.935000*%
%ADD29RoundRect,0.250000X-0.450000X0.350000X-0.450000X-0.350000X0.450000X-0.350000X0.450000X0.350000X0*%
G04 APERTURE END LIST*
D10*
X108344819Y-78996905D02*
X107344819Y-78996905D01*
X107344819Y-78996905D02*
X107344819Y-79235000D01*
X107344819Y-79235000D02*
X107392438Y-79377857D01*
X107392438Y-79377857D02*
X107487676Y-79473095D01*
X107487676Y-79473095D02*
X107582914Y-79520714D01*
X107582914Y-79520714D02*
X107773390Y-79568333D01*
X107773390Y-79568333D02*
X107916247Y-79568333D01*
X107916247Y-79568333D02*
X108106723Y-79520714D01*
X108106723Y-79520714D02*
X108201961Y-79473095D01*
X108201961Y-79473095D02*
X108297200Y-79377857D01*
X108297200Y-79377857D02*
X108344819Y-79235000D01*
X108344819Y-79235000D02*
X108344819Y-78996905D01*
X107440057Y-79949286D02*
X107392438Y-79996905D01*
X107392438Y-79996905D02*
X107344819Y-80092143D01*
X107344819Y-80092143D02*
X107344819Y-80330238D01*
X107344819Y-80330238D02*
X107392438Y-80425476D01*
X107392438Y-80425476D02*
X107440057Y-80473095D01*
X107440057Y-80473095D02*
X107535295Y-80520714D01*
X107535295Y-80520714D02*
X107630533Y-80520714D01*
X107630533Y-80520714D02*
X107773390Y-80473095D01*
X107773390Y-80473095D02*
X108344819Y-79901667D01*
X108344819Y-79901667D02*
X108344819Y-80520714D01*
X-41160419Y-48923333D02*
X-41112800Y-48875714D01*
X-41112800Y-48875714D02*
X-41065180Y-48732857D01*
X-41065180Y-48732857D02*
X-41065180Y-48637619D01*
X-41065180Y-48637619D02*
X-41112800Y-48494762D01*
X-41112800Y-48494762D02*
X-41208038Y-48399524D01*
X-41208038Y-48399524D02*
X-41303276Y-48351905D01*
X-41303276Y-48351905D02*
X-41493752Y-48304286D01*
X-41493752Y-48304286D02*
X-41636609Y-48304286D01*
X-41636609Y-48304286D02*
X-41827085Y-48351905D01*
X-41827085Y-48351905D02*
X-41922323Y-48399524D01*
X-41922323Y-48399524D02*
X-42017561Y-48494762D01*
X-42017561Y-48494762D02*
X-42065180Y-48637619D01*
X-42065180Y-48637619D02*
X-42065180Y-48732857D01*
X-42065180Y-48732857D02*
X-42017561Y-48875714D01*
X-42017561Y-48875714D02*
X-41969942Y-48923333D01*
X-41636609Y-49494762D02*
X-41684228Y-49399524D01*
X-41684228Y-49399524D02*
X-41731847Y-49351905D01*
X-41731847Y-49351905D02*
X-41827085Y-49304286D01*
X-41827085Y-49304286D02*
X-41874704Y-49304286D01*
X-41874704Y-49304286D02*
X-41969942Y-49351905D01*
X-41969942Y-49351905D02*
X-42017561Y-49399524D01*
X-42017561Y-49399524D02*
X-42065180Y-49494762D01*
X-42065180Y-49494762D02*
X-42065180Y-49685238D01*
X-42065180Y-49685238D02*
X-42017561Y-49780476D01*
X-42017561Y-49780476D02*
X-41969942Y-49828095D01*
X-41969942Y-49828095D02*
X-41874704Y-49875714D01*
X-41874704Y-49875714D02*
X-41827085Y-49875714D01*
X-41827085Y-49875714D02*
X-41731847Y-49828095D01*
X-41731847Y-49828095D02*
X-41684228Y-49780476D01*
X-41684228Y-49780476D02*
X-41636609Y-49685238D01*
X-41636609Y-49685238D02*
X-41636609Y-49494762D01*
X-41636609Y-49494762D02*
X-41588990Y-49399524D01*
X-41588990Y-49399524D02*
X-41541371Y-49351905D01*
X-41541371Y-49351905D02*
X-41446133Y-49304286D01*
X-41446133Y-49304286D02*
X-41255657Y-49304286D01*
X-41255657Y-49304286D02*
X-41160419Y-49351905D01*
X-41160419Y-49351905D02*
X-41112800Y-49399524D01*
X-41112800Y-49399524D02*
X-41065180Y-49494762D01*
X-41065180Y-49494762D02*
X-41065180Y-49685238D01*
X-41065180Y-49685238D02*
X-41112800Y-49780476D01*
X-41112800Y-49780476D02*
X-41160419Y-49828095D01*
X-41160419Y-49828095D02*
X-41255657Y-49875714D01*
X-41255657Y-49875714D02*
X-41446133Y-49875714D01*
X-41446133Y-49875714D02*
X-41541371Y-49828095D01*
X-41541371Y-49828095D02*
X-41588990Y-49780476D01*
X-41588990Y-49780476D02*
X-41636609Y-49685238D01*
X103973333Y-58704819D02*
X103973333Y-59419104D01*
X103973333Y-59419104D02*
X104020952Y-59561961D01*
X104020952Y-59561961D02*
X104116190Y-59657200D01*
X104116190Y-59657200D02*
X104259047Y-59704819D01*
X104259047Y-59704819D02*
X104354285Y-59704819D01*
X103544761Y-58800057D02*
X103497142Y-58752438D01*
X103497142Y-58752438D02*
X103401904Y-58704819D01*
X103401904Y-58704819D02*
X103163809Y-58704819D01*
X103163809Y-58704819D02*
X103068571Y-58752438D01*
X103068571Y-58752438D02*
X103020952Y-58800057D01*
X103020952Y-58800057D02*
X102973333Y-58895295D01*
X102973333Y-58895295D02*
X102973333Y-58990533D01*
X102973333Y-58990533D02*
X103020952Y-59133390D01*
X103020952Y-59133390D02*
X103592380Y-59704819D01*
X103592380Y-59704819D02*
X102973333Y-59704819D01*
X144885664Y-68264863D02*
X144885664Y-67264769D01*
X144314182Y-68264863D02*
X144742793Y-67693381D01*
X144314182Y-67264769D02*
X144885664Y-67836251D01*
X143361711Y-68264863D02*
X143933193Y-68264863D01*
X143647452Y-68264863D02*
X143647452Y-67264769D01*
X143647452Y-67264769D02*
X143742699Y-67407640D01*
X143742699Y-67407640D02*
X143837946Y-67502887D01*
X143837946Y-67502887D02*
X143933193Y-67550510D01*
X152614819Y-67456666D02*
X153329104Y-67456666D01*
X153329104Y-67456666D02*
X153471961Y-67409047D01*
X153471961Y-67409047D02*
X153567200Y-67313809D01*
X153567200Y-67313809D02*
X153614819Y-67170952D01*
X153614819Y-67170952D02*
X153614819Y-67075714D01*
X152948152Y-68361428D02*
X153614819Y-68361428D01*
X152567200Y-68123333D02*
X153281485Y-67885238D01*
X153281485Y-67885238D02*
X153281485Y-68504285D01*
X124604819Y-75167142D02*
X124128628Y-74833809D01*
X124604819Y-74595714D02*
X123604819Y-74595714D01*
X123604819Y-74595714D02*
X123604819Y-74976666D01*
X123604819Y-74976666D02*
X123652438Y-75071904D01*
X123652438Y-75071904D02*
X123700057Y-75119523D01*
X123700057Y-75119523D02*
X123795295Y-75167142D01*
X123795295Y-75167142D02*
X123938152Y-75167142D01*
X123938152Y-75167142D02*
X124033390Y-75119523D01*
X124033390Y-75119523D02*
X124081009Y-75071904D01*
X124081009Y-75071904D02*
X124128628Y-74976666D01*
X124128628Y-74976666D02*
X124128628Y-74595714D01*
X124604819Y-76119523D02*
X124604819Y-75548095D01*
X124604819Y-75833809D02*
X123604819Y-75833809D01*
X123604819Y-75833809D02*
X123747676Y-75738571D01*
X123747676Y-75738571D02*
X123842914Y-75643333D01*
X123842914Y-75643333D02*
X123890533Y-75548095D01*
X124604819Y-77071904D02*
X124604819Y-76500476D01*
X124604819Y-76786190D02*
X123604819Y-76786190D01*
X123604819Y-76786190D02*
X123747676Y-76690952D01*
X123747676Y-76690952D02*
X123842914Y-76595714D01*
X123842914Y-76595714D02*
X123890533Y-76500476D01*
D11*
%TO.C,C8*%
X-46785000Y-48726248D02*
X-46785000Y-49248752D01*
X-45315000Y-48726248D02*
X-45315000Y-49248752D01*
%TO.C,J2*%
X98580000Y-60249000D02*
X108700000Y-60249000D01*
X98580000Y-63209000D02*
X108700000Y-63209000D01*
X98580000Y-68110000D02*
X108700000Y-68110000D01*
X98580000Y-69610000D02*
X108700000Y-69610000D01*
X98580000Y-70170000D02*
X98580000Y-60249000D01*
X98580000Y-70170000D02*
X108700000Y-70170000D01*
X99912000Y-64487000D02*
X99865000Y-64441000D01*
X100105000Y-64271000D02*
X100070000Y-64235000D01*
X102209000Y-66784000D02*
X102174000Y-66749000D01*
X102414000Y-66579000D02*
X102367000Y-66533000D01*
X108440000Y-70410000D02*
X108940000Y-70410000D01*
X108700000Y-70170000D02*
X108700000Y-60249000D01*
X108940000Y-70410000D02*
X108940000Y-69670000D01*
X104605000Y-66194000D02*
G75*
G02*
X104604573Y-64826958I1535004J684001D01*
G01*
X105456000Y-63975000D02*
G75*
G02*
X106823042Y-63974573I684001J-1534993D01*
G01*
X106140000Y-67190000D02*
G75*
G02*
X105456682Y-67044756I0J1680000D01*
G01*
X106824000Y-67045000D02*
G75*
G02*
X106111195Y-67190253I-683999J1535001D01*
G01*
X107675000Y-64826000D02*
G75*
G02*
X107675427Y-66193042I-1534993J-684001D01*
G01*
X102820000Y-65510000D02*
G75*
G02*
X99460000Y-65510000I-1680000J0D01*
G01*
X99460000Y-65510000D02*
G75*
G02*
X102820000Y-65510000I1680000J0D01*
G01*
D12*
%TO.C,K1*%
X134137500Y-60030000D02*
X153237500Y-60030000D01*
X134137500Y-75530000D02*
X134137500Y-60030000D01*
X153237500Y-60030000D02*
X153237500Y-75530000D01*
X153237500Y-75530000D02*
X134137500Y-75530000D01*
D13*
X133587500Y-73899000D02*
G75*
G02*
X133387500Y-73899000I-100000J0D01*
G01*
X133387500Y-73899000D02*
G75*
G02*
X133587500Y-73899000I100000J0D01*
G01*
D11*
%TO.C,J4*%
X154159000Y-75350000D02*
X154159000Y-60230000D01*
X157119000Y-75350000D02*
X157119000Y-60230000D01*
X158181000Y-68825000D02*
X158145000Y-68860000D01*
X158181000Y-73825000D02*
X158145000Y-73860000D01*
X158397000Y-69018000D02*
X158351000Y-69065000D01*
X158397000Y-74018000D02*
X158351000Y-74065000D01*
X160489000Y-66516000D02*
X160443000Y-66563000D01*
X160489000Y-71516000D02*
X160443000Y-71563000D01*
X160694000Y-66721000D02*
X160659000Y-66756000D01*
X160694000Y-71721000D02*
X160659000Y-71756000D01*
X162020000Y-75350000D02*
X162020000Y-60230000D01*
X163520000Y-75350000D02*
X163520000Y-60230000D01*
X164080000Y-60230000D02*
X154159000Y-60230000D01*
X164080000Y-75350000D02*
X154159000Y-75350000D01*
X164080000Y-75350000D02*
X164080000Y-60230000D01*
X164320000Y-59990000D02*
X163580000Y-59990000D01*
X164320000Y-60490000D02*
X164320000Y-59990000D01*
X157885000Y-63474000D02*
G75*
G02*
X157884573Y-62106958I1534993J684001D01*
G01*
X158736000Y-61255000D02*
G75*
G02*
X160103042Y-61254573I684001J-1534993D01*
G01*
X160104000Y-64325000D02*
G75*
G02*
X158736958Y-64325427I-684001J1535004D01*
G01*
X160955000Y-62106000D02*
G75*
G02*
X161100253Y-62818805I-1535001J-683999D01*
G01*
X161100000Y-62790000D02*
G75*
G02*
X160954756Y-63473318I-1680000J0D01*
G01*
X161100000Y-67790000D02*
G75*
G02*
X157740000Y-67790000I-1680000J0D01*
G01*
X157740000Y-67790000D02*
G75*
G02*
X161100000Y-67790000I1680000J0D01*
G01*
X161100000Y-72790000D02*
G75*
G02*
X157740000Y-72790000I-1680000J0D01*
G01*
X157740000Y-72790000D02*
G75*
G02*
X161100000Y-72790000I1680000J0D01*
G01*
%TO.C,R11*%
X125305000Y-75957064D02*
X125305000Y-75502936D01*
X126775000Y-75957064D02*
X126775000Y-75502936D01*
%TD*%
%LPC*%
D14*
%TO.C,USB1*%
X106430000Y-113025000D03*
X112210000Y-113025000D03*
D15*
X105000000Y-112495000D03*
D16*
X105000000Y-116675000D03*
D15*
X113640000Y-112495000D03*
D16*
X113640000Y-116675000D03*
%TD*%
D17*
%TO.C,D3*%
X131260000Y-82150000D03*
D18*
X131260000Y-69450000D03*
%TD*%
D19*
%TO.C,J3*%
X118775000Y-92490000D03*
D20*
X118775000Y-89990000D03*
X118775000Y-87490000D03*
X118775000Y-84990000D03*
%TD*%
D21*
%TO.C,J1*%
X131270000Y-94785000D03*
D22*
X131270000Y-92245000D03*
X133810000Y-94785000D03*
X133810000Y-92245000D03*
X136350000Y-94785000D03*
X136350000Y-92245000D03*
X138890000Y-94785000D03*
X138890000Y-92245000D03*
%TD*%
D23*
%TO.C,C8*%
X-46050000Y-50025000D03*
X-46050000Y-47950000D03*
%TD*%
D24*
%TO.C,J2*%
X106140000Y-65510000D03*
D25*
X101140000Y-65510000D03*
%TD*%
D26*
%TO.C,K1*%
X137587500Y-73780000D03*
D27*
X137587500Y-61780000D03*
D28*
X135587500Y-67780000D03*
D27*
X149787500Y-73780000D03*
X149787500Y-61780000D03*
%TD*%
D24*
%TO.C,J4*%
X159420000Y-62790000D03*
D25*
X159420000Y-67790000D03*
X159420000Y-72790000D03*
%TD*%
D29*
%TO.C,R11*%
X126040000Y-74730000D03*
X126040000Y-76730000D03*
%TD*%
%LPD*%
M02*
