%TF.GenerationSoftware,KiCad,Pcbnew,8.0.2*%
%TF.CreationDate,2024-05-29T12:03:12+02:00*%
%TF.ProjectId,IOT_ESP32,494f545f-4553-4503-9332-2e6b69636164,rev?*%
%TF.SameCoordinates,Original*%
%TF.FileFunction,Paste,Top*%
%TF.FilePolarity,Positive*%
%FSLAX46Y46*%
G04 Gerber Fmt 4.6, Leading zero omitted, Abs format (unit mm)*
G04 Created by KiCad (PCBNEW 8.0.2) date 2024-05-29 12:03:12*
%MOMM*%
%LPD*%
G01*
G04 APERTURE LIST*
G04 Aperture macros list*
%AMRoundRect*
0 Rectangle with rounded corners*
0 $1 Rounding radius*
0 $2 $3 $4 $5 $6 $7 $8 $9 X,Y pos of 4 corners*
0 Add a 4 corners polygon primitive as box body*
4,1,4,$2,$3,$4,$5,$6,$7,$8,$9,$2,$3,0*
0 Add four circle primitives for the rounded corners*
1,1,$1+$1,$2,$3*
1,1,$1+$1,$4,$5*
1,1,$1+$1,$6,$7*
1,1,$1+$1,$8,$9*
0 Add four rect primitives between the rounded corners*
20,1,$1+$1,$2,$3,$4,$5,0*
20,1,$1+$1,$4,$5,$6,$7,0*
20,1,$1+$1,$6,$7,$8,$9,0*
20,1,$1+$1,$8,$9,$2,$3,0*%
G04 Aperture macros list end*
%ADD10RoundRect,0.250000X0.337500X0.475000X-0.337500X0.475000X-0.337500X-0.475000X0.337500X-0.475000X0*%
%ADD11R,1.700000X1.000000*%
%ADD12R,1.700000X0.600000*%
%ADD13RoundRect,0.250000X-0.475000X0.337500X-0.475000X-0.337500X0.475000X-0.337500X0.475000X0.337500X0*%
%ADD14R,2.000000X1.780000*%
%ADD15RoundRect,0.250000X-0.350000X-0.450000X0.350000X-0.450000X0.350000X0.450000X-0.350000X0.450000X0*%
%ADD16R,1.500000X0.900000*%
%ADD17R,0.900000X1.500000*%
%ADD18R,1.050000X1.050000*%
%ADD19RoundRect,0.250000X0.450000X-0.325000X0.450000X0.325000X-0.450000X0.325000X-0.450000X-0.325000X0*%
%ADD20RoundRect,0.250000X-0.450000X0.325000X-0.450000X-0.325000X0.450000X-0.325000X0.450000X0.325000X0*%
%ADD21R,0.600000X2.450000*%
%ADD22R,0.300000X2.450000*%
%ADD23RoundRect,0.250000X0.450000X-0.350000X0.450000X0.350000X-0.450000X0.350000X-0.450000X-0.350000X0*%
%ADD24RoundRect,0.250000X0.475000X-0.337500X0.475000X0.337500X-0.475000X0.337500X-0.475000X-0.337500X0*%
%ADD25RoundRect,0.250000X-0.450000X0.350000X-0.450000X-0.350000X0.450000X-0.350000X0.450000X0.350000X0*%
%ADD26RoundRect,0.150000X0.825000X0.150000X-0.825000X0.150000X-0.825000X-0.150000X0.825000X-0.150000X0*%
%ADD27RoundRect,0.250000X0.350000X0.450000X-0.350000X0.450000X-0.350000X-0.450000X0.350000X-0.450000X0*%
%ADD28R,1.500000X0.400000*%
%ADD29RoundRect,0.250001X0.624999X-0.462499X0.624999X0.462499X-0.624999X0.462499X-0.624999X-0.462499X0*%
%ADD30R,2.000000X1.500000*%
%ADD31R,2.000000X3.800000*%
%ADD32R,2.000000X0.650000*%
%ADD33R,3.000000X1.400000*%
%ADD34R,1.000000X1.050000*%
%ADD35R,1.050000X2.200000*%
%ADD36R,1.800000X1.100000*%
%ADD37RoundRect,0.250000X-0.337500X-0.475000X0.337500X-0.475000X0.337500X0.475000X-0.337500X0.475000X0*%
G04 APERTURE END LIST*
D10*
%TO.C,C11*%
X-25472500Y-56200000D03*
X-27547500Y-56200000D03*
%TD*%
%TO.C,C6*%
X143307500Y-109230000D03*
X141232500Y-109230000D03*
%TD*%
%TO.C,C7*%
X143247500Y-105500000D03*
X141172500Y-105500000D03*
%TD*%
D11*
%TO.C,U1*%
X112260000Y-105620000D03*
D12*
X112260000Y-103920000D03*
X109260000Y-103920000D03*
X109260000Y-105820000D03*
%TD*%
D13*
%TO.C,C5*%
X142510000Y-115502500D03*
X142510000Y-117577500D03*
%TD*%
D14*
%TO.C,U4*%
X115640000Y-63810000D03*
X115640000Y-66350000D03*
X123260000Y-66350000D03*
X123260000Y-63810000D03*
%TD*%
D15*
%TO.C,R3*%
X-50780000Y-62670000D03*
X-48780000Y-62670000D03*
%TD*%
%TO.C,R10*%
X129180000Y-61390000D03*
X131180000Y-61390000D03*
%TD*%
D16*
%TO.C,U3*%
X137145000Y-118055000D03*
X137145000Y-116785000D03*
X137145000Y-115515000D03*
X137145000Y-114245000D03*
X137145000Y-112975000D03*
X137145000Y-111705000D03*
X137145000Y-110435000D03*
X137145000Y-109165000D03*
X137145000Y-107895000D03*
X137145000Y-106625000D03*
X137145000Y-105355000D03*
X137145000Y-104085000D03*
X137145000Y-102815000D03*
X137145000Y-101545000D03*
D17*
X134105000Y-100295000D03*
X132835000Y-100295000D03*
X131565000Y-100295000D03*
X130295000Y-100295000D03*
X129025000Y-100295000D03*
X127755000Y-100295000D03*
X126485000Y-100295000D03*
X125215000Y-100295000D03*
X123945000Y-100295000D03*
X122675000Y-100295000D03*
D16*
X119645000Y-101545000D03*
X119645000Y-102815000D03*
X119645000Y-104085000D03*
X119645000Y-105355000D03*
X119645000Y-106625000D03*
X119645000Y-107895000D03*
X119645000Y-109165000D03*
X119645000Y-110435000D03*
X119645000Y-111705000D03*
X119645000Y-112975000D03*
X119645000Y-114245000D03*
X119645000Y-115515000D03*
X119645000Y-116785000D03*
X119645000Y-118055000D03*
D18*
X130600000Y-112240000D03*
X130600000Y-110715000D03*
X130600000Y-109190000D03*
X129075000Y-112240000D03*
X129075000Y-110715000D03*
X129075000Y-109190000D03*
X127550000Y-112240000D03*
X127550000Y-110715000D03*
X127550000Y-109190000D03*
%TD*%
D19*
%TO.C,D4*%
X126020000Y-80730000D03*
X126020000Y-78680000D03*
%TD*%
D20*
%TO.C,D2*%
X107960000Y-75780000D03*
X107960000Y-77830000D03*
%TD*%
D21*
%TO.C,USB1*%
X106095000Y-111080000D03*
X106870000Y-111080000D03*
D22*
X107570000Y-111080000D03*
X108070000Y-111080000D03*
X108570000Y-111080000D03*
X109070000Y-111080000D03*
X109570000Y-111080000D03*
X110070000Y-111080000D03*
X110570000Y-111080000D03*
X111070000Y-111080000D03*
D21*
X111770000Y-111080000D03*
X112545000Y-111080000D03*
%TD*%
D23*
%TO.C,R4*%
X112270000Y-102220000D03*
X112270000Y-100220000D03*
%TD*%
D13*
%TO.C,C3*%
X153910000Y-114692500D03*
X153910000Y-116767500D03*
%TD*%
D19*
%TO.C,D1*%
X112770000Y-68335000D03*
X112770000Y-66285000D03*
%TD*%
D24*
%TO.C,C9*%
X110960000Y-75617500D03*
X110960000Y-73542500D03*
%TD*%
D25*
%TO.C,R7*%
X151130000Y-100620000D03*
X151130000Y-102620000D03*
%TD*%
D10*
%TO.C,C1*%
X143257500Y-102030000D03*
X141182500Y-102030000D03*
%TD*%
D26*
%TO.C,U2*%
X111875000Y-98265000D03*
X111875000Y-96995000D03*
X111875000Y-95725000D03*
X111875000Y-94455000D03*
X111875000Y-93185000D03*
X111875000Y-91915000D03*
X111875000Y-90645000D03*
X111875000Y-89375000D03*
X106925000Y-89375000D03*
X106925000Y-90645000D03*
X106925000Y-91915000D03*
X106925000Y-93185000D03*
X106925000Y-94455000D03*
X106925000Y-95725000D03*
X106925000Y-96995000D03*
X106925000Y-98265000D03*
%TD*%
D27*
%TO.C,R12*%
X-25490000Y-52680000D03*
X-27490000Y-52680000D03*
%TD*%
D28*
%TO.C,Q1*%
X147860000Y-110870000D03*
X147860000Y-111520000D03*
X147860000Y-112170000D03*
X150520000Y-112170000D03*
X150520000Y-111520000D03*
X150520000Y-110870000D03*
%TD*%
D29*
%TO.C,F1*%
X106940000Y-105817500D03*
X106940000Y-102842500D03*
%TD*%
D30*
%TO.C,U5*%
X114130000Y-72420000D03*
X114130000Y-74720000D03*
D31*
X120430000Y-74720000D03*
D30*
X114130000Y-77020000D03*
%TD*%
D13*
%TO.C,C12*%
X154880000Y-100582500D03*
X154880000Y-102657500D03*
%TD*%
D23*
%TO.C,R5*%
X109240000Y-102240000D03*
X109240000Y-100240000D03*
%TD*%
D10*
%TO.C,C10*%
X119250000Y-69610000D03*
X117175000Y-69610000D03*
%TD*%
D32*
%TO.C,Q2*%
X131180000Y-65700000D03*
X131180000Y-63800000D03*
X127760000Y-64750000D03*
%TD*%
D33*
%TO.C,U7*%
X145070000Y-82680000D03*
X145070000Y-84680000D03*
X145070000Y-86680000D03*
X145070000Y-88680000D03*
X145070000Y-90680000D03*
X145070000Y-92680000D03*
X145070000Y-94680000D03*
X145070000Y-96680000D03*
X160470000Y-96680000D03*
X160470000Y-94680000D03*
X160470000Y-92680000D03*
X160470000Y-90680000D03*
X160470000Y-88680000D03*
X160470000Y-86680000D03*
X160470000Y-84680000D03*
X160470000Y-82680000D03*
%TD*%
D27*
%TO.C,R2*%
X108060000Y-108350000D03*
X106060000Y-108350000D03*
%TD*%
D34*
%TO.C,J6*%
X160060000Y-99790000D03*
D35*
X161535000Y-101315000D03*
X158585000Y-101315000D03*
%TD*%
D36*
%TO.C,SW2*%
X163220000Y-109580000D03*
X157020000Y-109580000D03*
X163220000Y-105880000D03*
X157020000Y-105880000D03*
%TD*%
D13*
%TO.C,C4*%
X153880000Y-106512500D03*
X153880000Y-108587500D03*
%TD*%
D25*
%TO.C,R9*%
X110930000Y-78400000D03*
X110930000Y-80400000D03*
%TD*%
D15*
%TO.C,R1*%
X111070000Y-108340000D03*
X113070000Y-108340000D03*
%TD*%
D37*
%TO.C,C2*%
X102682500Y-98260000D03*
X104757500Y-98260000D03*
%TD*%
D15*
%TO.C,R8*%
X125000000Y-70840000D03*
X127000000Y-70840000D03*
%TD*%
D36*
%TO.C,SW1*%
X163200000Y-118030000D03*
X157000000Y-118030000D03*
X163200000Y-114330000D03*
X157000000Y-114330000D03*
%TD*%
D15*
%TO.C,R6*%
X-50780000Y-71520000D03*
X-48780000Y-71520000D03*
%TD*%
M02*
